<svg width="42" height="40" viewBox="0 0 42 40" fill="none" xmlns="http://www.w3.org/2000/svg">
<g clip-path="url(#clip0_796_6947)">
<circle cx="20.9995" cy="16.9497" r="9.6792" fill="white"/>
<path d="M20.9998 0C11.3393 0 3.5 7.69286 3.5 17.1925C3.5 21.9371 5.45829 26.2351 8.62716 29.3478L20.9998 41.2623L33.3762 29.3452C36.5445 26.2355 38.5033 21.9376 38.4997 17.1893C38.4997 7.70002 30.6656 0 20.9998 0ZM20.9998 25.789C16.1667 25.789 12.2497 21.9408 12.2497 17.1925C12.2497 12.4442 16.1667 8.59649 20.9998 8.59649C25.833 8.59649 29.75 12.4442 29.75 17.1925C29.75 21.9408 25.833 25.789 20.9998 25.789Z" fill="#D38B00"/>
</g>
<defs>
<clipPath id="clip0_796_6947">
<rect width="42" height="40" fill="white"/>
</clipPath>
</defs>
</svg>
