<svg width="200" height="200" viewBox="0 0 200 200" fill="none" xmlns="http://www.w3.org/2000/svg">
<path d="M175.37 34.4664C191.273 52.642 200.019 75.9728 199.978 100.112C199.978 155.276 155.209 200 99.9784 200C86.0951 200.016 72.3614 197.134 59.6581 191.54L60.7265 189.624L74.0028 165.389L74.1093 165.192C86.7456 170.216 100.572 171.461 113.904 168.776C127.236 166.09 139.499 159.59 149.199 150.067C158.899 140.544 165.617 128.409 168.535 115.14C171.453 101.871 170.446 88.0397 165.635 75.3326C165.721 74.9837 165.768 74.6257 165.773 74.2662C165.774 73.952 165.738 73.6385 165.666 73.3326C165.514 72.7883 165.307 72.261 165.047 71.7594C164.967 71.6206 164.92 71.4649 164.908 71.3053C164.916 71.1731 164.94 71.0423 164.982 70.9166C165.148 70.3992 165.261 69.9878 165.351 69.6891C165.373 69.5986 165.421 69.5184 165.421 69.4439C165.423 69.4246 165.423 69.4047 165.421 69.3854C165.447 69.3004 165.49 69.2364 165.49 69.1832C165.508 69.1433 165.524 69.1017 165.538 69.0602L165.57 69.0123C165.578 68.9975 165.587 68.9827 165.597 68.9693C165.615 68.9387 165.637 68.9094 165.661 68.8834L165.687 68.8521L165.805 68.7242L165.848 68.6861C165.912 68.6222 165.981 68.5586 166.072 68.484C166.628 68.0146 167.755 67.1663 168.919 66.2701C170.069 65.4088 171.174 64.4881 172.229 63.5123C173.73 61.976 178.589 57.8361 179.07 51.6217C179.145 50.5389 179.178 49.5464 179.178 48.6236C179.203 45.9552 178.865 43.295 178.174 40.7174L178.164 40.7203C177.492 38.5295 176.554 36.4288 175.37 34.4664ZM93.7675 183.703L87.9247 192.43L90.2216 192.574L92.7694 188.354C93.4528 187.197 94.0833 186.205 94.5692 185.197H94.6171C95.0389 186.328 95.4503 187.32 95.9843 188.552L97.9335 193.044L100.277 193.21L95.8349 183.81L96.2567 177.109L94.1952 176.982L93.7675 183.703ZM118.195 175.035L119.6 181.746L117.715 182.134C115.899 182.449 114.883 181.82 113.975 179.783C113.499 178.563 112.9 177.393 112.187 176.294L110.12 176.725C110.569 177.253 111.247 178.673 112.203 180.726C112.908 182.273 113.853 183.222 115.113 183.393V183.463C114.322 183.892 113.693 184.567 113.319 185.384C112.946 186.202 112.847 187.119 113.041 187.997C113.14 188.551 113.355 189.079 113.672 189.545C113.988 190.01 114.4 190.405 114.879 190.702C116 191.358 117.49 191.475 119.626 191.033C120.901 190.761 122.151 190.384 123.364 189.907L120.198 174.618L118.195 175.035ZM121.085 188.936C120.462 189.202 119.808 189.393 119.141 189.506C117.026 189.938 115.391 189.368 114.975 187.373C114.606 185.602 115.718 184.145 117.853 183.703L119.903 183.287L121.085 188.936ZM130.505 171.119L131.295 172.639L137.378 169.465L140.021 174.522L134.579 177.355L135.37 178.87L140.807 176.038L143.124 180.455L137.373 183.463L138.168 184.983L145.752 180.999L138.425 166.968L130.505 171.119ZM77.997 180.621C77.8221 180.656 77.6612 180.742 77.5351 180.868C77.409 180.994 77.3238 181.155 77.289 181.33C77.2542 181.504 77.2716 181.686 77.3397 181.85C77.4081 182.015 77.5244 182.155 77.6728 182.254C77.8183 182.352 77.9891 182.404 78.164 182.406C78.279 182.407 78.3936 182.388 78.5009 182.346C78.6134 182.303 78.716 182.236 78.8026 182.152C78.8891 182.068 78.9578 181.967 79.0048 181.856C79.0517 181.745 79.0761 181.626 79.0761 181.505C79.076 181.327 79.0228 181.153 78.9237 181.004C78.8246 180.856 78.6833 180.741 78.5185 180.672C78.3537 180.604 78.1719 180.586 77.997 180.621ZM99.9999 0.22422C116.522 0.200962 132.79 4.28508 147.338 12.109C147.21 12.2422 147.087 12.3704 146.959 12.5143L146.814 12.6695L146.494 13.0426L146.238 13.3414L145.966 13.6715L145.432 14.317C145.362 14.4183 145.292 14.5046 145.233 14.5846L144.833 15.1178C144.78 15.1924 144.715 15.2778 144.651 15.3736C144.459 15.6402 144.267 15.9124 144.069 16.2057C143.595 16.9059 143.181 17.6453 142.831 18.4146C142.655 18.788 142.505 19.1668 142.366 19.5455C141.7 21.3677 141.339 23.2869 141.298 25.2262V26.3307C141.326 27.3868 141.424 28.4408 141.592 29.484C141.798 30.746 142.087 31.9932 142.457 33.2174C143.438 36.502 145.245 39.4811 147.706 41.8697C148.424 42.62 149.283 43.2218 150.234 43.6393C151.186 44.0567 152.211 44.2828 153.25 44.3033L152.854 44.441C152.733 44.4716 152.61 44.4934 152.486 44.5055H152.017C150.276 44.5215 147.371 43.7798 146.377 43.5396L146.003 43.4488H145.938L145.767 43.401L145.64 43.3639L145.496 43.3209L145.303 43.2682L145.185 43.2301L144.93 43.1559H144.844L144.518 43.0543H144.491C144.203 42.9743 143.952 42.8837 143.669 42.7877C142.681 42.4623 141.624 42.0777 140.748 41.7203C139.787 41.3309 137.922 40.6487 135.786 39.902C120.659 30.9656 102.723 28.0305 85.5321 31.6793C68.3413 35.3282 53.1499 45.2947 42.9677 59.6031C32.7855 73.9117 28.3545 91.5192 30.5546 108.936C32.7548 126.353 41.4252 142.31 54.8466 153.643L54.6542 154.006L40.411 180.305C27.8673 171.025 17.6773 158.935 10.6591 145.008C3.64093 131.081 -0.0102208 115.704 -0.000101091 100.112C5.24134e-06 44.943 44.7744 0.224296 99.9999 0.22422ZM157.159 152.352C156.166 153.096 155.215 153.896 154.312 154.748C152.064 156.844 150.804 159.149 150.734 161.203C150.665 163.256 151.525 165.385 153.271 167.252C155.017 169.118 156.918 169.886 158.798 169.865C160.678 169.844 162.697 168.937 164.833 166.931L164.822 166.91C165.894 165.928 166.881 164.858 167.77 163.71L157.159 152.352ZM165.25 164.003C164.78 164.652 164.242 165.251 163.647 165.79C160.491 168.739 157.324 168.446 154.793 165.705C151.872 162.6 151.93 159.196 155.135 156.198C155.629 155.719 156.154 155.272 156.705 154.859L165.25 164.003ZM115.567 133.399C115.698 133.616 115.842 133.826 115.995 134.028C116.556 134.748 117.09 135.495 117.624 136.231C118.879 137.906 120.192 139.502 121.41 141.209C124.107 145.007 126.863 148.783 129.533 152.608C130.521 154.027 131.573 155.484 132.662 156.838C132.725 156.916 132.794 156.988 132.87 157.052C122.883 162.813 111.55 165.839 100.017 165.822H99.9735C99.9735 163.955 99.8773 162.152 99.7919 160.317C99.5142 154.31 99.2577 148.25 99.2577 142.179V139.064C99.3065 138.45 99.321 137.834 99.3007 137.218L99.5946 137.251C100.625 137.341 101.575 137.379 102.456 137.379C103.63 137.385 104.803 137.306 105.966 137.143C106.462 140.162 106.921 143.214 107.381 146.276C107.626 147.876 107.861 149.477 108.16 151.078C108.363 152.251 108.251 154.364 109.228 155.233C110.339 156.236 112.17 155.425 112.24 154.102C112.32 152.545 111.738 150.971 111.439 149.477C110.756 146.085 110.398 142.644 109.928 139.241C109.821 138.478 109.933 137.101 109.484 136.343C109.986 136.189 110.414 136.039 110.767 135.927C112.1 135.551 113.382 135.014 114.585 134.328C114.975 134.092 115.31 133.775 115.567 133.399ZM90.2538 135.676C92.0374 136.166 93.8494 136.546 95.6796 136.813C95.6422 145.14 95.4867 153.596 95.8231 161.944C95.8819 163.203 95.9198 164.467 95.9198 165.731C89.1496 165.322 82.4834 163.866 76.1601 161.416L90.2538 135.676ZM112.796 158.743C112.347 157.884 110.425 157.554 110.072 158.535C109.618 159.426 109.746 161.501 110.211 162.371C110.75 163.373 112.384 163.73 113.062 162.664C113.628 161.757 113.244 159.602 112.796 158.743ZM39.6317 154.599C46.3224 149.731 36.9802 137.63 30.6483 142.329C26.857 145.14 28.6785 148.357 30.5956 151.589C31.4552 153.056 32.0586 154.353 30.8524 155.121C28.9673 156.326 25.7679 152.405 27.7704 150.912L25.036 147.231C18.4673 152.032 27.2365 163.731 33.661 158.738C36.8918 156.252 36.4059 153.265 34.1952 149.819C33.1539 148.245 32.3794 146.869 33.4472 146.085C35.2149 144.778 38.7823 149.456 36.8651 150.885L39.6317 154.599ZM137.228 106.321C138.296 106.55 139.674 106.545 140.315 106.652C143.402 107.159 146.532 107.383 149.602 107.997C151.963 108.562 154.352 109.003 156.759 109.319V109.314C159.172 109.538 161.538 110.012 163.92 110.322C164.284 110.376 164.652 110.41 165.02 110.423C163.978 117.002 161.934 123.383 158.959 129.344C158.779 129.222 158.591 129.113 158.397 129.014C156.699 128.097 154.852 127.488 153.105 126.677C151.69 126.021 150.275 125.37 148.913 124.676C148.445 124.438 147.601 124.046 147.13 124.382L147.247 124.266C146.766 124.463 146.377 124.836 146.163 125.309C145.949 125.782 145.924 126.319 146.094 126.81C146.419 127.824 147.45 128.241 148.315 128.748C150.694 130.113 153.146 131.349 155.658 132.45C156.074 132.693 156.514 132.893 156.972 133.046C151.831 141.902 144.701 149.445 136.144 155.078C135.812 154.25 135.341 153.485 134.751 152.816C133.181 150.842 131.61 148.869 130.04 146.863C126.873 142.836 123.76 138.658 120.919 134.348C119.691 132.487 118.478 130.594 117.073 128.86L117.383 128.971C117.634 129.062 117.848 129.131 118.035 129.19C118.265 129.271 118.503 129.326 118.745 129.355H119.076C119.478 129.353 119.879 129.309 120.272 129.222C120.764 129.126 121.236 128.946 121.666 128.689C121.823 128.585 121.975 128.472 122.12 128.352C122.659 127.936 123.642 127.13 124.636 126.288C125.513 125.562 126.354 124.791 127.151 123.978C127.68 123.391 128.225 122.72 128.668 122.128C128.892 121.834 129.09 121.561 129.25 121.327C129.33 121.209 129.405 121.097 129.475 120.98C129.58 120.812 129.667 120.633 129.735 120.447C129.832 120.171 129.904 119.887 129.949 119.598C129.982 119.394 130.004 119.187 130.014 118.98C131.114 119.535 132.182 120.09 133.25 120.655C136.139 122.175 139.124 124.09 142.216 125.055C142.942 125.285 143.327 125.418 143.861 124.789C144.268 124.271 144.508 123.643 144.55 122.986C144.55 121.188 142.403 120.633 141.073 119.897C137.634 117.993 134.248 116.083 130.665 114.386C130.275 114.21 129.88 114.034 129.49 113.853C129.762 113.896 130.04 113.896 130.328 113.896C131.088 113.928 131.843 113.744 132.502 113.363C132.772 113.188 133.017 112.975 133.228 112.733C133.914 111.925 134.543 111.071 135.113 110.178C135.76 109.217 136.342 108.213 136.854 107.174C137.004 106.855 137.122 106.577 137.228 106.321ZM64.497 116.478C64.8066 117.011 65.1211 117.534 65.452 118.025C66.5673 119.702 67.7902 121.305 69.1112 122.826C68.7857 123.114 68.0649 123.61 67.8935 123.738C67.0016 124.421 66.0877 125.04 65.2226 125.739C63.9036 126.8 62.5308 127.889 61.1317 128.817C60.1013 129.505 59.1189 130.198 58.1151 130.908C57.3678 131.332 56.764 131.97 56.3798 132.738C56.2168 133.063 56.1693 133.435 56.246 133.791C56.3228 134.146 56.519 134.465 56.8017 134.695C57.5012 135.228 58.43 134.658 59.0761 134.242C61.4045 132.727 63.4983 130.891 65.7733 129.254C66.7238 128.592 67.6373 127.829 68.577 127.12L68.5507 127.104C68.8922 126.827 69.3136 126.55 69.7245 126.267L56.956 149.839C49.0683 143.019 42.913 134.426 38.996 124.767C41.57 123.978 44.1287 123.061 46.7294 122.303C49.7999 121.407 52.7477 120.367 55.7382 119.236C57.4737 118.58 59.2096 117.961 61.0038 117.47C62.1626 117.15 63.3755 116.884 64.497 116.478ZM169.293 134.364L172.768 138.248L169.992 143.124L164.828 142.131L163.76 144.031L180.209 147.194L181.452 145.039L170.36 132.53L169.293 134.364ZM17.6552 135.96L15.706 131.804L11.8075 133.623L17.7411 146.271L21.6395 144.447L19.6737 140.264L32.8222 134.109C32.1493 132.662 31.4752 131.226 30.7987 129.803L17.6552 135.96ZM177.153 143.016C177.831 143.779 178.575 144.468 179.253 145.124V145.167C178.34 144.921 177.399 144.66 176.331 144.452L171.584 143.572L173.949 139.411L177.153 143.016ZM52.6503 135.27C52.4141 135.283 52.1835 135.351 51.9784 135.468L52.1601 135.336C51.6964 135.588 51.2566 135.883 50.8466 136.215C50.481 136.41 50.1399 136.648 49.8319 136.924C49.4155 137.324 48.9989 137.944 49.2069 138.525C49.3292 138.84 49.5294 139.119 49.789 139.336C50.0486 139.552 50.3593 139.699 50.6913 139.763C51.4389 139.891 51.9357 139.528 52.5604 139.043C53.3668 138.408 54.5316 137.629 54.206 136.445C54.1538 136.214 54.0478 135.999 53.8974 135.817C53.7468 135.635 53.5553 135.49 53.3388 135.395C53.1223 135.3 52.8864 135.257 52.6503 135.27ZM21.2284 113.01C21.8959 115.725 22.2962 117.327 22.9638 119.994L19.7597 120.789L18.2265 114.589L14.0829 115.614L15.621 121.818L13.0409 122.459C12.3734 119.775 12.0375 118.419 11.3593 115.71L7.18838 116.745H7.16689C8.22958 121.017 8.94549 123.909 10.0028 128.133L28.2665 123.605C27.2145 119.38 26.4459 116.248 25.3778 111.981L21.2284 113.01ZM173.703 123.407L175.37 123.824L177.025 117.171L182.563 118.553L181.084 124.496L182.724 124.901L184.208 118.959L189.052 120.18L187.503 126.512L189.164 126.922L191.204 118.575L175.84 114.754L173.703 123.407ZM44.9081 64.152C46.1844 65.1334 47.3968 66.1958 48.6464 67.1666C51.6048 69.4763 54.7878 71.5405 57.789 73.7809C60.4004 75.7386 62.7182 78.0167 65.2655 80.0064C66.2641 80.7852 67.135 81.7608 68.203 82.4596L68.2987 82.5289H67.5517C67.2206 82.5289 66.9427 82.567 66.6864 82.567H66.5097C66.0639 82.5647 65.6199 82.6252 65.1913 82.7477C64.5382 82.9246 63.9546 83.2974 63.5194 83.815C63.189 84.225 62.9751 84.518 62.9159 84.5934L62.6913 84.8766L62.5741 85.2232C62.5626 85.2472 62.1998 86.3184 61.8104 87.6822C61.3693 89.1187 61.0672 90.5944 60.9081 92.0885C60.8067 93.4165 60.8065 94.4835 60.8065 95.1344V96.5113C60.8067 96.6524 60.8189 96.7933 60.8436 96.9322C60.5393 96.8949 60.2346 96.8688 60.037 96.8688C59.1935 96.8368 58.366 96.8098 57.5331 96.7672C56.2621 96.7032 55.0013 96.6123 53.7304 96.527C50.9695 96.3349 48.2082 96.0143 45.4686 95.7369C44.6676 95.6516 43.3589 95.5249 42.7128 96.0582C42.4879 96.3053 42.3256 96.6026 42.2401 96.9254C42.1546 97.2484 42.1482 97.5877 42.2216 97.9137C42.4299 98.6765 43.4928 98.6976 44.1229 98.8043C44.988 98.943 45.8157 99.1193 46.702 99.2047C49.3455 99.4554 51.9788 99.7701 54.5956 100.047C55.7437 100.17 56.9827 100.102 58.1308 100.235C58.9905 100.336 59.765 100.363 60.5927 100.448C61.3886 100.515 62.1652 100.729 62.8837 101.078C62.5659 101.088 62.2521 101.151 61.955 101.264L61.9013 101.226V101.286C61.7497 101.349 61.6044 101.428 61.4686 101.52C61.0066 101.805 60.6267 102.206 60.3681 102.683C60.1539 103.112 60.024 103.577 59.9843 104.054C59.9522 104.291 59.9341 104.53 59.9306 104.769C59.9395 105.146 59.9882 105.522 60.0751 105.889V105.991L60.1063 106.091C60.117 106.123 60.684 107.964 61.6132 110.359C62.0084 111.346 62.4454 112.445 62.9794 113.56C62.4901 113.529 62.0009 113.624 61.5595 113.838C60.5236 114.168 59.4235 114.424 58.3876 114.787C54.5639 116.142 50.649 117.39 46.788 118.558C43.76 119.465 40.7742 120.554 37.7782 121.519C35.4067 114.631 34.1998 107.396 34.206 100.112V98.2711C34.8706 98.3655 35.5428 98.401 36.2138 98.3775C37.0842 98.4149 38.419 98.3511 38.953 97.5299C39.1616 97.2202 39.2733 96.8553 39.2733 96.482C39.2733 96.1087 39.1616 95.743 38.953 95.4332C38.4937 94.7564 37.5275 94.9317 36.7587 94.8678L34.4032 94.6861C35.2944 83.791 38.9063 73.2928 44.9081 64.152ZM19.8769 100.688C19.6471 91.6997 5.67751 92.0518 5.8749 101.046C5.9283 103.809 5.99747 106.599 6.08291 109.308L24.8925 108.834C24.8498 107.233 24.8121 105.633 24.7694 104.033L19.9628 104.15L19.8769 100.688ZM162.691 80.0172C164.773 86.4963 165.834 93.2594 165.837 100.064C165.837 102.224 165.731 104.358 165.522 106.492L165.304 106.465C163.979 106.263 162.676 105.996 161.308 105.846C156.721 105.345 152.09 104.891 147.546 104.059C145.009 103.595 142.408 103.366 139.883 102.913C139.328 102.817 138.761 102.709 138.227 102.619V102.256C138.224 101.961 138.184 101.667 138.109 101.381C137.991 100.988 137.822 100.612 137.607 100.261C136.648 98.7875 135.489 97.4532 134.163 96.2975C135.244 96.3992 136.33 96.4319 137.415 96.3941C141.452 96.5648 145.48 97.1932 149.512 97.5133C151.182 97.692 152.867 97.692 154.537 97.5133C155.242 97.4226 155.536 97.3161 155.685 96.5855C155.792 96.0678 155.71 95.5283 155.455 95.065C154.841 94.004 152.817 94.2273 151.749 94.1793C150.243 94.1099 148.785 93.9616 147.279 93.8336C144.999 93.6416 142.76 93.5826 140.507 93.5826C140.751 93.401 140.975 93.193 141.175 92.9635C141.457 92.6167 141.711 92.247 141.933 91.859C142.811 90.3864 143.527 88.8232 144.069 87.1969C144.235 86.6475 144.38 86.0711 144.508 85.5377C144.707 85.075 144.937 84.6261 145.196 84.1939C145.311 84.0081 145.437 83.8298 145.575 83.6607L145.709 83.5221H145.741C147.161 82.6527 147.471 82.5507 148.331 82.524C148.737 82.5187 149.837 82.6411 150.953 82.7584C152.069 82.8758 153.095 83.0152 153.901 83.0152H154.131C155.147 82.9246 156.158 82.7689 157.154 82.5504C157.752 82.4224 158.355 82.2836 158.916 82.1236C159.469 81.9757 160.006 81.7726 160.518 81.5162C161.301 81.1058 162.03 80.6022 162.691 80.0172ZM10.1464 100.96C10.1095 98.1542 15.4869 98.1969 15.5302 100.821L15.6044 104.262L10.2323 104.395C10.2056 103.296 10.1464 102.09 10.1464 100.96ZM176.679 89.3414H183.482C185.88 89.3414 188.519 89.2994 190.489 89.2301V89.2779C188.641 89.8487 186.66 90.5633 184.454 91.4488L177.084 94.4732L177.175 96.0201L185.01 98.3678C187.236 99.0025 189.271 99.5203 191.135 99.9684V100.016C189.191 100.15 186.526 100.432 184.326 100.682L177.41 101.472L177.527 103.489L193.298 101.589L193.142 98.9918L185.33 96.6393C183.29 96.0525 181.506 95.5936 179.904 95.2682V95.2203C181.517 94.7029 183.22 94.0836 185.127 93.3102L192.603 90.1578L192.443 87.5592L176.561 87.4L176.679 89.3414ZM161.949 94.4889C161.265 94.4195 158.596 94.1217 158.345 94.9537V94.8414C157.447 94.9001 157.672 96.9004 158.392 97.3912C159.231 97.978 160.699 97.8768 161.698 97.9781C162.278 98.0632 162.87 97.9991 163.418 97.7916C163.829 97.5249 163.904 96.7834 163.952 96.3033C164.102 94.879 163.172 94.6169 161.949 94.4889ZM21.8954 82.151C23.7644 73.3599 10.0935 70.4526 8.19228 79.2438C7.61554 81.9482 7.02794 84.6795 6.47256 87.3199L24.8759 91.2408L25.8798 86.5357L21.1698 85.5387L21.8954 82.151ZM134.211 90.6598C135.004 90.8087 135.609 90.9071 135.626 90.9098H135.637C135.158 91.0441 134.671 91.1516 134.179 91.2242L134.211 90.6598ZM12.3895 80.1666C12.9984 77.4407 18.2002 78.7102 17.6503 81.2867L16.9345 84.6471L11.6747 83.527C11.9043 82.4496 12.1279 81.26 12.3895 80.1666ZM79.0819 37.7623C79.3382 38.4609 79.7326 39.1438 80.037 39.7838C80.4215 40.632 80.7476 41.5021 81.1054 42.3609C82.0399 44.6494 83.0605 46.9644 84.1767 49.1568C84.6198 50.0209 85.052 50.9121 85.4472 51.7975C85.5393 52.1232 85.6634 52.4397 85.8163 52.7418C85.5665 52.9542 85.3691 53.1452 85.3251 53.1471L85.1591 53.2701L85.0204 53.4244C85.0126 53.4324 84.3883 54.1145 83.6581 54.9557C82.9265 55.7984 82.1785 56.6466 81.7353 57.2867C81.5484 57.58 81.3404 57.879 81.1376 58.2096C81.0735 58.0993 81.0093 57.9815 80.9452 57.857C80.1762 56.3636 79.226 54.8911 78.3876 53.4029C77.3463 51.5627 76.1658 49.8345 75.0497 48.0689C74.5958 47.3489 74.1308 46.5541 73.3192 46.1646C73.0068 46.0164 72.649 45.9931 72.3202 46.1002C71.9914 46.2074 71.7164 46.4371 71.5517 46.7408C71.4802 46.9932 71.4601 47.258 71.4931 47.5182C71.5262 47.7782 71.6119 48.029 71.744 48.2555L71.6103 47.8072C71.9812 48.6969 72.443 49.5463 72.9882 50.3414C73.4261 51.1415 73.9015 51.947 74.3554 52.7418C75.4927 54.7473 76.7473 56.6943 77.8847 58.6998C78.4133 59.6386 78.9854 60.5618 79.5194 61.5006C79.7781 61.9938 80.0686 62.4702 80.3895 62.9254C80.5971 64.0138 80.957 65.0677 81.4579 66.0563C81.6288 66.3816 81.7196 66.5424 81.7196 66.5904V66.6539L81.661 66.6969H81.6288C81.5135 66.7057 81.3975 66.7057 81.2821 66.6969H79.9042C79.5508 66.636 79.1939 66.5946 78.8358 66.5738C78.3713 66.5365 77.9596 66.5367 77.5858 66.5367C76.6778 66.4942 75.7702 66.6318 74.9159 66.942C74.4578 67.1406 74.0342 67.4113 73.661 67.7428L73.5702 67.817L73.4794 67.8971C73.4777 67.9251 72.9921 68.3731 72.411 68.9908C71.7525 69.6742 71.1537 70.4129 70.622 71.1988C70.2268 71.8122 69.7572 72.6287 69.3407 73.4127C69.1752 73.7434 69.02 74.0476 68.8759 74.3463L68.497 75.3014C68.449 75.4505 68.4064 75.605 68.369 75.7701C68.3103 76.1222 68.1709 76.4855 68.1015 77.0563L68.0429 77.0025C65.7106 74.9149 63.2463 72.9788 60.6669 71.2047C57.4948 69.0176 54.3603 66.6699 51.327 64.3229C50.0329 63.3207 48.6851 62.3891 47.2899 61.5328C47.1407 61.437 47.0072 61.3618 46.8739 61.2926C52.5707 53.5364 59.8933 47.1153 68.331 42.4781C68.8116 43.0062 68.9669 43.9988 69.6825 44.3775C70.0024 44.5326 70.3649 44.5768 70.7128 44.5035C71.0609 44.4301 71.3745 44.2425 71.6044 43.9713C72.197 43.2511 71.7433 41.8966 70.953 41.1178C73.5838 39.8182 76.3002 38.6971 79.0819 37.7623ZM181.228 72.9596C181.002 72.9771 180.79 73.0793 180.636 73.2457C180.481 73.4123 180.395 73.631 180.395 73.858C180.395 74.0851 180.481 74.3047 180.636 74.4713C180.79 74.6376 181.002 74.7389 181.228 74.7564C181.352 74.7659 181.477 74.7504 181.595 74.7096C181.712 74.6687 181.82 74.6044 181.911 74.5201C182.002 74.4357 182.075 74.3331 182.125 74.2193C182.175 74.1055 182.2 73.9822 182.2 73.858C182.2 73.7341 182.175 73.6113 182.125 73.4977C182.075 73.384 182.002 73.2812 181.911 73.1969C181.82 73.1127 181.712 73.0482 181.595 73.0074C181.477 72.9667 181.352 72.9501 181.228 72.9596ZM11.9306 66.5689L29.1532 74.149L33.9921 63.1979L30.0829 61.4742C28.9401 64.056 28.2879 65.5284 27.1718 68.0621L24.1444 66.7281L26.7284 60.8609L22.8202 59.1324L20.2353 65.0006L17.7997 63.9332L20.6083 57.5689L16.6728 55.8307C14.8945 59.8633 13.6929 62.5896 11.9306 66.5689ZM86.3065 63.526L86.4774 63.7145L87.3563 64.398C87.2267 64.3138 87.1127 64.239 87.0175 64.1734C86.6544 63.9228 86.3395 63.6933 86.0458 63.4693L85.2929 64.0875C85.283 64.0704 85.2733 64.053 85.2655 64.0348C85.1026 63.7193 84.9698 63.3891 84.87 63.0484C85.2831 63.1838 85.7699 63.347 86.3065 63.526ZM35.1425 34.44C34.4682 34.2336 33.7515 34.2043 33.0624 34.3541C31.7354 34.7122 30.5497 35.4675 29.6659 36.5191C28.6671 37.5209 28.0563 38.8444 27.9413 40.2535C27.9141 41.1806 28.1742 42.0936 28.6854 42.8678C29.1968 43.6419 29.9348 44.2398 30.7987 44.5797C31.6327 44.812 32.4955 44.925 33.3612 44.9156C32.968 46.1409 32.8196 47.432 32.9237 48.7145C33.1517 50.138 33.9095 51.4231 35.0448 52.3131C36.1804 53.2031 37.6111 53.6328 39.0497 53.5152C40.6392 53.3262 42.1002 52.5494 43.1454 51.3385C43.9444 50.5012 44.6016 49.5388 45.0897 48.4898C45.5375 47.4523 45.7835 46.3389 45.8153 45.2096L47.0175 45.2574C47.3018 45.2794 47.5877 45.2794 47.872 45.2574V41.4439H47.1132L45.8798 41.3951L45.8056 40.0084C45.8143 39.5262 45.7974 39.0436 45.7567 38.5631L42.2645 39.0963C42.3018 39.2615 42.2697 39.4323 42.3017 39.6295L42.3554 41.3258L38.1845 41.1656C38.4427 40.1765 38.4862 39.1437 38.3124 38.1363C38.1462 37.1382 37.654 36.2227 36.913 35.5328C36.4263 35.0231 35.8166 34.6465 35.1425 34.44ZM99.327 47.2779L99.3329 47.3326H99.4276L102.094 48.7682L105.727 52.5592C105.433 52.3545 105.156 52.1572 104.945 51.9898C104.427 51.5791 103.663 51.035 102.851 50.443C102.04 49.8509 101.196 49.1995 100.662 48.7301L100.272 48.3727L99.0497 49.2262L98.9374 48.9859C98.8813 48.7897 98.8486 48.5878 98.8407 48.3844V47.9244C98.8672 47.2693 98.81 47.4935 98.9647 47.0826L99.327 47.2779ZM100.278 34.3541C105.761 34.3758 111.221 35.0793 116.529 36.4498L114.927 36.5309C114.393 36.5522 113.661 36.5943 112.934 36.5943C112.154 36.4854 111.367 36.4269 110.579 36.4186C109.206 36.4464 107.839 36.6126 106.499 36.9146C105.296 37.1389 104.129 37.5229 103.028 38.0563C102.377 38.4243 101.458 38.9894 100.577 39.5602C99.6959 40.1309 98.9902 40.595 98.579 40.9098C98.0987 41.3036 97.6406 41.724 97.2069 42.1686C96.6168 42.713 96.1106 43.3425 95.706 44.0357C95.4526 44.4513 95.2369 44.8888 95.0604 45.3424C94.7216 46.0909 94.5539 46.9058 94.5692 47.7271V48.4381C94.5822 49.039 94.6757 49.6364 94.8466 50.2135H94.8192C94.2746 50.0588 93.6604 49.8986 93.0624 49.776C92.4792 49.6372 91.8833 49.5565 91.2841 49.5357C90.9844 49.5318 90.6857 49.5726 90.3983 49.6578C89.9472 49.8013 89.5073 49.9804 89.0839 50.192C88.865 50.3093 88.646 50.4269 88.4218 50.5602C88.2616 50.1336 88.0105 49.7016 87.8876 49.4029C86.9958 47.2693 86.0242 45.0925 84.9989 43.0016H84.9931C84.2241 41.4386 83.5885 39.8163 82.8729 38.232C82.6861 37.7414 82.4625 37.2647 82.205 36.8072C86.9956 35.4577 91.9254 34.6584 96.8974 34.4234H96.9296C97.0088 35.0925 97.3159 35.7138 97.7997 36.1832C98.1007 36.4136 98.4604 36.5557 98.8378 36.5934C99.2149 36.631 99.5949 36.5631 99.9354 36.3971C100.448 36.0504 100.444 34.9463 100.278 34.3541ZM42.2968 45.1617C42.2929 45.7981 42.1885 46.43 41.9872 47.0338C41.7801 47.6322 41.4439 48.1787 41.0038 48.6344C40.7824 48.893 40.5112 49.1055 40.2069 49.2584C39.9028 49.4112 39.571 49.5017 39.2313 49.525C38.8978 49.5427 38.5637 49.4901 38.2519 49.3707C37.9401 49.2513 37.6569 49.0674 37.4208 48.8316C37.0048 48.4475 36.7458 47.9225 36.6942 47.359C36.6339 46.591 36.699 45.8181 36.8866 45.0709L42.2968 45.1617ZM33.2343 37.6715C33.4846 37.6563 33.7354 37.6966 33.9686 37.7887C34.202 37.8808 34.4125 38.0234 34.5849 38.2057C34.9104 38.5042 35.1141 38.9127 35.1561 39.3521C35.1894 40.0098 35.0854 40.6672 34.8515 41.2828C34.2484 41.3876 33.6334 41.406 33.0253 41.3365C32.6258 41.2637 32.2549 41.0789 31.9569 40.8033C31.7864 40.6584 31.6498 40.4768 31.5575 40.273C31.4654 40.0695 31.4192 39.848 31.4228 39.6246C31.4322 39.1698 31.6139 38.7348 31.9306 38.4078C32.2526 38.0026 32.7207 37.7383 33.2343 37.6715ZM178.168 40.734L176.769 41.0748L178.164 40.7203C178.165 40.7248 178.166 40.7295 178.168 40.734ZM66.0507 12.1412L66.9589 19.567L67.5829 22.8102L67.5136 22.8473L60.3095 15.2135L58.4677 16.0934L59.9462 26.4586L59.872 26.4957L57.7362 23.9732L52.4862 18.6383L48.1015 20.7398L48.411 21.3912L62.2694 35.0152L64.6728 33.8688L63.4765 24.4049L63.5517 24.3736L70.1737 31.2389L72.6786 30.0221L70.6806 10.733L70.371 10.0768L66.0507 12.1412ZM156.513 17.7047C160.878 20.6944 165 24.0252 168.839 27.6646C168.169 27.2982 167.449 27.0316 166.702 26.8746C166.258 26.7909 165.808 26.7481 165.356 26.7467C164.717 26.7348 164.081 26.8437 163.482 27.067C163.05 27.2235 162.657 27.4722 162.331 27.7965C162.005 28.1208 161.755 28.5135 161.597 28.9449C161.462 29.3465 161.359 29.7592 161.292 30.1773C161.228 30.4056 161.265 30.3212 161.228 30.4059C160.248 30.0747 159.328 29.5867 158.505 28.9605C157.314 28.0968 156.38 26.9262 155.803 25.5738C155.295 24.3933 155.025 23.124 155.007 21.8395C154.98 20.9817 155.164 20.13 155.541 19.359L155.744 19.0172C155.813 18.9053 155.877 18.7877 155.941 18.6705C155.961 18.6376 155.983 18.6058 156.006 18.5748L156.219 18.2008L156.283 18.0992L156.513 17.7047ZM75.1718 9.37754C75.5135 10.9244 75.7329 11.8691 76.08 13.4693L78.2167 12.9898L80.4647 23.1246L78.1308 23.6588L79.039 27.777L88.3895 25.6852L87.4813 21.567L85.1425 22.1012L82.8944 11.9654L85.0302 11.4898C84.6565 9.91664 84.47 8.94563 84.1229 7.39902L75.1718 9.37754ZM110.397 25.3492L117.287 27.0455V27.0348C129.201 29.9152 133.687 11.7678 121.794 8.79649L114.905 7.09434L110.397 25.3492ZM101.521 6.14512L101.672 15.3521L92.0058 6.21934L90.2538 6.25254L90.5741 25.152L95.5458 25.0719L95.3915 15.8053L105.036 24.9117L106.75 24.8854L106.44 6.06504L101.521 6.14512ZM120.748 13.0318C126.568 14.4673 124.16 24.2177 118.339 22.7828L116.117 22.2496L118.526 12.4986L120.748 13.0318Z" fill="black"/>
<path d="M86.3232 131.452L53.8046 188.728C52.7688 188.189 51.7488 187.635 50.7343 187.059L82.6699 129.761L86.3232 131.452ZM82.3388 129.334L50.2109 186.743L49.1425 186.13L80.5341 128.518L82.3388 129.334ZM50.6005 172.304C50.7593 172.292 50.9185 172.322 51.0624 172.39C51.2064 172.458 51.3309 172.562 51.4228 172.692C51.5145 172.821 51.5708 172.973 51.5869 173.131C51.6029 173.289 51.5774 173.448 51.5136 173.594C51.2157 174.275 50.859 174.929 50.4462 175.547C49.768 176.774 49.111 178.001 48.4755 179.254C47.6318 180.918 46.9317 182.631 46.0292 184.263C45.3743 183.843 44.7302 183.416 44.0966 182.983C44.3368 182.556 44.5824 182.124 44.8066 181.682C45.3139 180.674 45.9279 179.697 46.4619 178.705C47.3448 177.084 48.2346 175.47 49.1318 173.866C49.4308 173.344 49.9331 172.4 50.6005 172.304ZM57.8105 159.324C57.9937 159.334 58.1689 159.405 58.3066 159.526C58.4442 159.647 58.5359 159.811 58.5683 159.991C58.7178 160.68 58.0666 161.655 57.7568 162.21C57.447 162.765 56.9343 163.737 56.1279 163.449C55.3217 163.16 55.6369 162.258 55.9306 161.725C56.226 161.023 56.6163 160.365 57.0898 159.768C57.2767 159.48 57.3993 159.287 57.8105 159.324ZM73.6298 130.197C73.8068 130.195 73.9803 130.244 74.1298 130.339C74.2793 130.434 74.3986 130.569 74.4726 130.73C74.5466 130.89 74.573 131.069 74.5478 131.244C74.5209 131.97 73.9437 132.796 73.5966 133.42C73.1641 134.22 72.8596 135.037 72.4218 135.821C70.0454 140.067 67.8667 144.447 65.5117 148.714C64.5077 150.539 63.5085 152.374 62.4404 154.14C62.0826 154.727 61.7034 155.499 61.0146 155.74C60.4645 155.916 59.477 155.67 59.8134 154.849V154.983C59.776 154.481 60.4649 153.649 60.7372 153.196C61.2392 152.331 61.6827 151.419 62.1259 150.529C63.1245 148.528 64.053 146.474 65.121 144.474C67.2519 140.361 69.3833 136.216 71.7704 132.295C72.1602 131.66 72.4964 130.801 73.1318 130.348C73.2795 130.251 73.4528 130.198 73.6298 130.197ZM79.0917 127.985C79.1131 128.193 79.6848 128.427 79.8505 128.657C79.7023 128.988 79.5142 129.3 79.29 129.585C79.0176 130.071 78.745 130.556 78.4833 131.041C78.0775 131.783 77.6284 132.551 77.2119 133.207C76.7954 133.863 76.4004 134.551 75.9413 135.175H75.957C75.7167 135.495 75.0709 135.981 74.9853 135.235C74.9372 134.728 75.5091 134.013 75.7441 133.575C76.0378 133.042 76.3149 132.508 76.6513 131.975C77.5218 130.657 78.2108 129.196 79.124 127.915L79.0917 127.985ZM97.9443 125.27C98.3284 125.44 98.7317 125.564 99.1454 125.638C101.039 126.188 102.896 126.855 104.705 127.638C106.152 128.299 107.562 128.982 109.047 129.569H109.058C110.147 130.001 111.963 130.492 112.523 131.617C112 132.418 110.739 132.781 109.895 133.138C107.514 134.167 105.1 134.263 102.559 134.492C100.357 134.653 98.1439 134.519 95.9785 134.093C93.7042 133.649 91.4699 133.021 89.2978 132.215C88.1551 131.81 86.9055 131.218 85.704 131.074C87.3862 131.074 89.1274 131.554 90.8095 131.693C92.3988 131.829 93.9955 131.859 95.5888 131.782C97.6554 131.676 99.7434 131.74 101.815 131.65C102.718 131.607 103.605 131.458 104.486 131.383C105.001 131.365 105.513 131.305 106.018 131.206C106.398 131.085 106.788 130.996 107.183 130.94C106.601 130.539 105.991 130.183 105.356 129.873C104.571 129.42 103.701 128.902 102.97 128.481C102.238 128.059 101.527 127.611 100.796 127.174C99.8026 126.577 98.8306 125.675 97.7626 125.227L97.9443 125.27ZM99.9306 128.561C100.24 128.619 100.587 128.71 100.913 128.806L99.3115 130.407C99.2711 130.448 99.2379 130.497 99.2148 130.55C98.9479 130.582 98.7558 130.582 98.4677 130.582H97.6445C98.363 129.861 99.1268 129.186 99.9306 128.561ZM88.6943 124.059C88.8443 123.977 89.0165 124.091 89.1855 124.155C89.7195 124.347 90.254 124.619 90.788 124.88C91.6584 125.312 92.5769 125.776 93.4579 126.16C95.3004 126.961 96.8868 127.606 98.6171 128.199C97.768 128.908 96.9774 129.681 96.1923 130.46C93.9829 130.208 91.8232 129.629 89.7841 128.742C89.2127 128.502 88.6246 128.3 88.0585 128.075C87.754 127.953 86.5641 127.547 86.5634 127.185C86.5527 127.02 86.932 126.678 87.0283 126.55C87.1991 126.331 87.3642 126.112 87.5244 125.883C87.9141 125.312 88.208 124.677 88.6191 124.117C88.6424 124.092 88.6676 124.074 88.6923 124.06L88.7265 124.016L88.6943 124.059ZM102.003 129.243C102.377 129.451 102.633 129.628 102.403 129.943C102.174 130.257 101.33 130.348 100.86 130.391C101.25 130.017 101.629 129.633 102.003 129.243ZM125.058 118.057C125.411 118.117 125.745 118.258 126.035 118.468C126.468 118.745 126.718 118.986 126.568 119.492C126.297 120.115 125.903 120.678 125.41 121.146C124.528 122.184 123.565 123.151 122.531 124.037C120.94 125.376 119.028 126.923 116.945 125.857C115.706 125.222 114.419 124.624 113.17 123.973C112.738 123.795 112.332 123.56 111.963 123.275C111.733 123.061 111.631 122.783 111.364 122.623C112.042 122.863 112.849 122.885 113.56 123.056C114.419 123.269 115.279 123.456 116.144 123.637C116.892 123.866 117.676 123.956 118.457 123.904C119.359 123.738 119.914 122.863 120.539 122.255C121.751 121.071 123.007 119.913 124.166 118.692C124.449 118.393 124.641 118.057 125.058 118.057ZM80.1552 106.534C80.9455 106.492 81.6449 107.09 82.291 107.474C83.8931 108.423 85.4634 109.357 87.0976 110.199C87.7064 110.514 88.2885 110.882 88.8759 111.229C89.677 111.704 90.553 112.056 91.3701 112.509C93.3193 113.587 95.1672 114.824 97.1699 115.806C98.0776 116.249 98.9851 116.718 99.8661 117.225C100.08 117.393 100.303 117.55 100.534 117.695C100.443 117.919 100.603 118.052 100.47 118.26C100.075 118.874 99.631 120.1 99.2519 120.73C98.7659 121.519 97.864 123.307 97.33 124.048C97.0951 124.363 97.0091 123.989 96.8329 124.33C96.6359 124.304 97.1212 124.027 96.8759 123.968C96.6303 123.909 96.3843 123.813 96.1386 123.749C95.6527 123.611 95.1719 123.482 94.6806 123.327C94.3337 123.221 93.9919 123.115 93.6503 122.997C93.0391 122.745 92.4417 122.46 91.8613 122.144C91.218 121.836 90.5905 121.495 89.9814 121.124C89.5222 120.836 89.0311 120.623 88.5986 120.303C88.2074 120.016 87.8488 119.687 87.5302 119.322C87.3914 119.14 87.2949 118.895 87.124 118.788C87.5352 118.106 87.9252 117.396 88.3525 116.718C88.6995 116.169 88.9932 115.587 89.3349 115.054C89.5378 114.755 89.7249 114.408 89.8691 114.12L89.9169 114.088C89.5058 113.838 89.0737 113.608 88.6786 113.341C88.3315 113.96 88.0322 114.494 87.6103 115.214C87.1884 115.934 86.7393 116.633 86.3388 117.348C86.2158 117.649 86.0621 117.937 85.8798 118.206C85.7463 118.366 85.7197 118.308 85.5488 118.206C85.1483 117.972 84.7262 117.732 84.3417 117.465C84.0854 117.289 83.2692 117.481 83.2421 117.14C83.2154 116.799 82.9798 117.044 83.124 116.74C83.3589 116.259 84.2775 114.638 84.582 114.2C85.1587 113.379 85.6505 112.472 86.1845 111.608C86.0896 111.508 85.9793 111.423 85.8583 111.357C85.3724 112.119 84.8866 112.989 84.3847 113.779C84.0269 114.344 83.6959 114.932 83.3808 115.513C83.2366 115.732 82.7558 116.446 82.8466 116.692C82.614 116.449 82.3966 116.192 82.1953 115.923C82.035 115.742 81.9283 115.624 82.0351 115.438C82.1419 115.251 82.2859 115.054 82.4033 114.867C82.7343 114.334 83.0865 113.8 83.4443 113.267C84.0129 112.505 84.5395 111.713 85.0204 110.893C84.9909 110.88 84.9634 110.862 84.9404 110.84C84.8011 110.71 84.6444 110.598 84.4755 110.509C84.2299 110.322 83.9732 110.157 83.7382 109.976C83.3644 109.682 82.9475 109.416 82.579 109.112C82.0611 108.685 81.5701 108.236 81.0361 107.799C80.6275 107.519 80.2419 107.207 79.8828 106.866L79.9521 106.913C80.0532 106.808 80.1237 106.677 80.1552 106.534ZM63.0439 105.18C63.3376 104.609 64.1925 104.924 64.6464 105.143C65.677 105.633 66.8357 105.921 66.8359 107.18L66.7451 106.956C66.9907 107.885 67.0389 108.957 67.2792 109.826C67.5195 110.696 67.7864 111.565 68.1015 112.424C68.874 114.579 69.8039 116.673 70.8837 118.692C71.4018 119.636 72.3955 120.57 72.6679 121.637C72.7374 121.919 72.8702 122.042 72.5019 122.042C71.9625 122.021 71.2361 120.815 70.9531 120.468C69.8584 119.124 68.7158 117.78 67.7226 116.345C65.7056 113.52 64.1811 110.374 63.2148 107.041C63.0919 106.593 62.8251 105.612 63.0439 105.18ZM116.636 117.359C116.983 117.535 117.336 117.69 117.693 117.807C117.031 118.751 116.486 119.77 115.749 120.645C115.267 120.609 114.789 120.537 114.317 120.431C115.144 119.449 115.918 118.423 116.636 117.359ZM118.761 118.132C119.094 118.19 119.419 118.288 119.727 118.425C120.293 118.74 119.851 119.273 119.6 119.625C119.464 119.834 119.288 120.014 119.08 120.152C118.872 120.289 118.638 120.383 118.393 120.426C117.962 120.537 117.522 120.608 117.079 120.639C117.65 119.812 118.141 118.927 118.761 118.132ZM97.9814 108.044C98.2697 108.056 98.5527 108.126 98.8144 108.247C99.642 108.608 100.445 109.024 101.218 109.491C104.539 111.336 107.984 112.984 111.364 114.744H111.359C112.785 115.491 114.243 116.158 115.658 116.878C114.898 118.028 114.049 119.118 113.121 120.138C111.57 119.731 110.062 119.173 108.619 118.473C106.841 117.561 104.924 116.745 103.221 115.838C101.517 114.931 99.8079 114.062 98.0937 113.171C97.7145 112.968 94.7026 111.821 95.0439 111.213V111.181C95.3856 111.346 96.1757 110.53 96.3788 110.28C96.805 109.759 97.1641 109.187 97.4472 108.577C97.6019 108.3 97.629 108.071 97.9814 108.044ZM69.0361 111.437C69.271 111.447 69.7462 111.88 69.9599 112.024C70.413 112.331 70.8388 112.677 71.2314 113.059C71.5206 113.375 71.7182 113.764 71.8046 114.184C71.8911 114.604 71.8632 115.039 71.7226 115.444C70.9964 115.374 70.1899 114.515 69.7626 113.982C69.2998 113.364 69.0354 112.623 68.9999 111.858L68.999 111.608C69.0031 111.549 69.0155 111.492 69.0361 111.437ZM127.744 95.4495C128.289 95.4231 129.116 95.9674 129.564 96.2874C130.275 96.83 130.959 97.4084 131.61 98.0208C132.391 98.7184 133.119 99.4729 133.789 100.278C134.403 100.987 135.076 101.691 135.215 102.646H135.247C135.386 103.59 134.911 104.726 134.457 105.542C133.932 106.525 133.338 107.47 132.679 108.369C131.894 109.5 130.75 111.667 129.073 110.067C128.272 109.288 129.549 107.586 130.275 106.445C130.903 105.52 131.469 104.553 131.968 103.553C132.139 103.169 132.673 102.454 132.545 102.065C132.29 101.487 131.977 100.936 131.61 100.421C131.055 99.5304 130.179 98.5381 129.544 97.6634C129.044 96.9389 128.451 96.2828 127.781 95.7112L127.963 95.845C127.882 95.7179 127.809 95.5854 127.744 95.4495ZM90.0244 89.4856C91.7012 89.555 93.4527 90.2491 94.9853 90.8518C97.1183 91.6603 99.177 92.6525 101.138 93.8177C103.007 94.9645 104.935 96.0523 106.879 97.0178C108.823 97.9834 110.916 99.28 112.149 101.099C112.774 102.011 112.31 102.561 111.851 103.425C111.081 104.828 110.236 106.188 109.319 107.5C109.042 108.005 108.648 108.437 108.171 108.759C108.018 108.814 107.855 108.833 107.694 108.816C107.533 108.798 107.379 108.744 107.242 108.657C106.366 108.305 105.544 107.831 104.668 107.452C103.894 107.127 103.156 106.749 102.377 106.434C101.784 106.194 101.202 105.889 100.636 105.59C99.643 105.101 98.6895 104.536 97.7841 103.9C97.2819 103.596 96.8335 103.21 96.4589 102.758C96.3255 102.513 96.5551 102.267 96.7206 101.979V102C97.276 101.056 97.9229 99.9623 98.457 99.1194C98.9908 98.2768 99.498 97.3596 100.059 96.5384C99.4604 96.1489 99.0173 95.8284 98.3925 95.471C97.7517 96.6659 96.9133 97.7489 96.1923 98.9065C95.8505 99.4506 95.5243 100.011 95.1826 100.544C94.8869 100.925 94.6525 101.35 94.4882 101.803C94.3919 101.574 93.9067 101.419 93.6611 101.27C93.2339 101.008 91.8778 101.12 91.9199 100.587C91.9412 100.31 91.5411 100.57 91.6953 100.31C91.9729 99.8511 93.1483 98.0002 93.4208 97.5305C93.7359 96.9811 94.0135 96.3882 94.3339 95.8548C94.5368 95.5188 94.7667 95.151 94.9482 94.7884C95.1415 94.4632 95.2989 94.118 95.4179 93.7591C95.1723 93.6204 94.9481 93.4437 94.6865 93.3157L94.622 93.385C94.5206 93.561 94.3502 93.8971 94.2753 94.0413C94.1152 94.3506 93.9651 94.6225 93.7783 94.9212C93.4365 95.4599 93.2283 95.9835 92.8652 96.5969C92.5021 97.2103 92.1279 97.8342 91.7968 98.4475C91.6194 98.9209 91.3754 99.3668 91.0712 99.7708C90.5959 99.488 90.0191 99.3275 90.2968 98.7034C90.512 98.2471 90.7503 97.802 91.0117 97.3704C91.6739 96.2128 92.3789 95.1135 92.9824 93.9026C93.1844 93.5909 93.3631 93.2643 93.5165 92.926C93.6125 92.6118 93.5436 92.574 93.2822 92.3928C92.8056 92.0857 92.3074 91.8127 91.7919 91.5764C91.2365 91.3097 90.6699 91.1076 90.0878 90.8782C89.7845 90.7388 89.4722 90.6194 89.1533 90.5208C88.8863 90.4568 88.6087 90.5045 88.3525 90.4192H88.454C88.3543 90.3819 88.2698 90.3125 88.2138 90.2219C88.5876 89.5125 89.2874 89.4536 90.0244 89.4856ZM128.865 103.318C129.105 103.771 129.463 105.02 128.63 105.02C128.571 105.027 128.512 105.027 128.454 105.02C128.539 104.369 128.62 103.718 128.705 103.068L128.865 103.318ZM127.215 101.136C127.423 101.348 127.621 101.571 127.808 101.803C127.663 102.678 127.562 103.574 127.444 104.47C127.231 104.31 127.034 104.15 126.868 104.043L126.494 103.809L127.215 101.136ZM109.373 90.4622C109.453 90.2168 109.56 90.3286 109.741 90.3606C110.208 90.523 110.656 90.7359 111.076 90.9954C111.679 91.2941 112.272 91.6303 112.881 91.929C114.307 92.6385 115.754 93.3804 117.127 94.1966H117.143C119.861 95.8129 122.868 97.2952 125.261 99.3596C125.634 99.6796 125.986 99.9839 126.328 100.293C126.077 101.275 125.805 102.256 125.543 103.238C122.446 101.312 119.353 99.5734 116.149 97.7278C113.311 96.0892 110.388 94.6024 107.392 93.2737C107.365 92.991 107.696 92.8836 107.872 92.7395C108.085 92.5624 108.266 92.3498 108.406 92.1106C108.81 91.5414 109.15 90.9296 109.421 90.2864L109.373 90.4622ZM69.3027 92.6438C69.9685 93.1275 70.6277 93.6236 71.2792 94.1321C71.6211 94.3935 72.5666 94.9323 72.6894 95.3323C72.8121 95.7324 72.2455 96.5274 71.9892 96.8528C71.5354 97.418 71.1774 97.2532 70.6435 96.9759H70.6591C70.2053 96.7412 69.7678 96.4954 69.3193 96.218C69.0896 96.0687 68.8438 95.9295 68.6035 95.7962C68.8331 94.7454 69.0891 93.7106 69.3027 92.6438ZM68.3476 91.9612C68.166 93.0599 67.8774 94.164 67.6318 95.2307L67.5458 95.1829L67.2841 95.0286C67.487 93.8924 67.6743 92.7453 67.8505 91.6038L68.3476 91.9612ZM66.3388 94.346H66.3232C66.3238 94.3422 66.3245 94.338 66.3251 94.3343C66.3294 94.3385 66.335 94.3415 66.3388 94.346ZM66.8574 90.9212C66.7012 92.0589 66.5237 93.1965 66.3251 94.3343C66.2993 94.3083 66.2653 94.2858 66.206 94.2766C66.0592 94.04 65.9647 93.7736 65.9306 93.4973C65.8966 93.2213 65.923 92.941 66.0078 92.676C66.0686 92.0553 66.2179 91.4461 66.4511 90.8675C66.4472 90.8333 66.4543 90.7986 66.4716 90.7688C66.4889 90.739 66.5161 90.716 66.5478 90.7024L66.8574 90.9212ZM101.33 70.5061C101.581 70.2448 102.494 70.5641 102.724 70.6975C103.982 71.0031 105.212 71.4194 106.397 71.9407C108.249 72.8692 110.019 73.9503 111.69 75.1731C113.57 76.4374 115.359 77.8458 117.25 79.1048C118.009 79.573 118.723 80.1089 119.386 80.7053C119.88 81.1564 120.322 81.6607 120.705 82.2093C120.523 82.4736 120.366 82.7544 120.235 83.0471C120 83.4739 119.771 83.9061 119.541 84.3382C119.092 85.213 118.611 86.0126 118.077 86.8128C117.794 87.2235 117.533 87.6135 117.261 88.0188C117.122 88.2267 117.143 88.3175 116.94 88.3177C116.779 88.2918 116.623 88.2428 116.476 88.1731C115.729 87.8731 115.013 87.5017 114.339 87.0637C113.431 86.5677 112.63 85.9219 111.706 85.4632C110.868 85.0471 110.029 84.6151 109.212 84.1458C108.606 83.8893 108.017 83.5932 107.45 83.26C107.146 83.0414 107.311 82.9293 107.45 82.6946C107.589 82.4601 107.696 82.2098 107.829 81.97C108.742 80.3216 109.939 78.7791 110.724 77.0774C110.548 76.9095 110.343 76.7745 110.12 76.678C109.736 76.5073 109.639 76.5229 109.415 76.9016C109.089 77.4564 108.731 77.9901 108.448 78.5716C107.855 79.7771 107.102 80.9672 106.43 82.1087C106.384 82.1907 106.345 82.2764 106.312 82.3645C105.52 82.2305 104.808 81.8036 104.315 81.1692C104.219 81.5373 103.445 82.2678 104.086 81.3343C104.376 80.9105 106.7 77.2777 106.99 76.8382C107.345 76.3638 107.645 75.8498 107.883 75.3069C107.67 75.2286 107.452 75.164 107.231 75.1145C106.591 76 105.987 77.0136 105.378 77.9524C105.036 78.4859 104.71 79.0196 104.39 79.553C104.076 80.0019 103.805 80.4785 103.578 80.9768C103.263 80.8008 102.911 80.5508 102.585 80.3802L102.516 80.4173C102.98 79.5211 103.749 78.6037 104.283 77.7503C104.71 77.0941 105.111 76.5446 105.522 75.8831C105.736 75.5363 106.168 74.9009 106.014 74.5169C105.865 74.2542 105.663 74.0254 105.421 73.845C105.052 73.5196 104.684 73.2049 104.326 72.8635C103.397 71.9834 102.174 71.487 101.309 70.5481L101.33 70.5061ZM134.536 79.7825C134.722 80.0616 134.845 80.3782 134.894 80.7102C134.876 81.287 134.744 81.8549 134.505 82.3802C134.35 82.8656 134.195 83.4795 133.597 83.4475C133.465 83.4399 133.337 83.4012 133.223 83.3352C133.653 82.151 134.131 80.9771 134.536 79.7825ZM119.327 69.7112C119.797 69.4285 120.475 69.7907 120.902 69.9934C122.064 70.5567 123.177 71.2154 124.229 71.9622C125.303 72.7037 126.505 73.498 127.573 74.1702C128.785 74.9383 129.709 75.7711 130.873 76.5979C131.884 77.2551 132.841 77.9918 133.735 78.801C133.335 80.1026 132.822 81.367 132.342 82.6419L132.283 82.5989C131.066 81.7347 129.89 80.8121 128.684 79.9319C127.242 78.8757 125.783 77.8403 124.277 76.8694C121.849 75.2266 119.243 73.8632 116.508 72.805C116.401 72.7676 116.288 72.7143 116.182 72.6663V72.6018H116.155L116.182 72.5755V72.5969C116.662 72.4369 117.105 72.5058 117.554 72.1966C117.96 71.8355 118.288 71.3945 118.516 70.9007C118.713 70.5753 118.991 69.914 119.327 69.7112ZM134.536 79.7825C134.533 79.7774 134.53 79.7719 134.526 79.7669H134.542C134.54 79.7721 134.538 79.7772 134.536 79.7825ZM84.2353 73.9309C85.6609 74.5763 87.0441 75.2799 88.4111 76.0159C88.9888 76.2849 89.5522 76.5844 90.0986 76.9124C90.4242 77.131 90.8516 77.3551 90.6064 77.7923C90.4281 78.136 90.1866 78.4439 89.8954 78.6995C89.5109 78.9765 88.8971 78.6143 88.5234 78.4436C87.0282 77.7769 85.6183 76.9396 84.0751 76.3528C83.5037 76.1341 82.9528 75.8824 82.3974 75.6477C82.7712 75.3064 83.1456 74.9709 83.498 74.6135C83.6795 74.4376 83.9569 74.1975 84.1865 73.9309H84.2353ZM83.1513 73.429C82.9163 73.685 82.6645 73.9301 82.4189 74.1702C82.0612 74.5061 81.7038 74.8264 81.3515 75.1516C81.0899 75.0396 80.828 74.9278 80.5771 74.8264C81.1805 74.2451 81.7628 73.6423 82.3769 73.0716L83.1513 73.429ZM78.0244 72.0364C78.4355 71.6847 79.0494 71.802 79.6259 71.9993L77.2763 74.4641C77.0295 74.5542 76.7761 74.6251 76.5185 74.677L76.539 74.6829C76.3043 74.7093 76.1766 74.528 76.3046 74.3147C76.5419 73.8284 76.844 73.3758 77.2021 72.97C77.4487 72.6358 77.7239 72.3232 78.0244 72.0364ZM81.2714 72.5911C80.6413 73.2045 80.0269 73.8345 79.3808 74.4319L79.0976 74.3626L78.8788 74.3255L80.7372 72.3782C80.9081 72.4422 81.0899 72.5164 81.2714 72.5911ZM110.393 52.3577C111.882 51.6963 113.666 52.2295 115.087 52.763C118.542 54.1179 122.008 55.7561 124.86 58.1673C125.709 58.8872 126.686 59.5117 127.594 60.1624C128.4 60.7438 129.153 61.4159 129.906 62.0667C130.333 62.4401 131.407 63.0858 131.258 63.8059C131.162 64.2589 131.615 63.6884 131.396 64.0989C131.049 64.7336 129.928 66.3976 129.618 67.054C129.399 67.5074 128.186 69.4065 127.925 69.8333C127.802 70.0253 128.128 69.4658 127.968 69.6311C127.706 69.9078 127.915 69.1824 127.573 69.0276C126.335 68.5307 125.154 67.8994 124.054 67.1448C123.658 66.8567 123.236 66.5796 122.819 66.3235C122.189 65.9341 121.597 65.4698 120.956 65.0911C120.203 64.643 119.402 64.2536 118.601 63.8802C118.153 63.6965 117.725 63.4678 117.324 63.1975C117.34 63.1975 117.362 63.1869 117.399 63.1282C117.618 62.7976 117.378 63.2241 117.618 62.8987C117.618 62.8675 117.458 63.2345 117.618 62.9309C117.778 62.627 119.091 60.6863 119.252 60.3811C119.412 60.0771 119.594 59.8366 119.786 59.5432C119.946 59.3342 120.084 59.109 120.197 58.8714C120.315 58.6153 120.321 58.5508 120.064 58.3802C119.68 58.1241 119.466 58.0609 119.193 58.4983C118.921 58.9356 118.612 59.3676 118.345 59.7835C118.078 60.1996 117.864 60.6368 117.575 61.0423C117.399 61.2928 117.234 61.533 117.079 61.7942C116.967 62.0201 116.823 62.2289 116.651 62.4134C116.39 62.6105 116.154 62.3599 115.855 62.1839C115.556 62.0084 115.189 62.4827 115.322 62.1468C115.456 61.8109 115.039 62.0665 115.236 61.763C115.327 61.6243 115.317 61.6349 115.279 61.6829C115.632 61.1335 117.175 58.53 117.415 58.135C117.607 57.8577 118.109 57.1115 117.949 56.9885C117.597 56.7112 117.416 57.2015 117.282 57.4309C117.047 57.8309 116.823 58.2364 116.577 58.6311C116.086 59.4206 115.594 60.1995 115.124 60.9837C114.916 61.3677 114.767 61.762 114.308 61.5169C114.206 61.4635 113.971 61.3037 113.971 61.1917C113.971 61.0796 114.195 60.8609 114.259 60.7649C114.768 59.9795 115.228 59.1634 115.637 58.3216C115.845 57.9268 116.064 57.5426 116.305 57.1692C116.476 56.9074 116.94 56.0707 116.721 55.9534L115.824 55.4622C115.429 55.2435 115.006 55.0835 114.59 54.8968C113.691 54.4633 112.756 54.1068 111.797 53.8303C111.338 53.713 110.879 53.6062 110.435 53.4622C110.238 53.3928 110.04 53.3397 109.837 53.2757C109.65 53.2223 109.346 53.0513 109.218 53.0725H109.324C109.399 52.8378 110.099 52.4857 110.393 52.3577ZM117.233 63.1712C117.287 62.9738 117.245 63.1498 117.271 63.1712H117.233ZM139.322 60.7171C139.418 60.9809 139.484 61.255 139.519 61.5335C139.541 61.7526 139.674 62.4777 139.434 62.595C139.401 62.6151 139.363 62.6262 139.324 62.6262C139.286 62.6262 139.248 62.6152 139.215 62.595C139.236 61.9655 139.279 61.3412 139.322 60.7171ZM115.224 61.7307L115.221 61.7249L115.263 61.6614C115.253 61.6828 115.237 61.7059 115.224 61.7307ZM137.223 56.636C137.548 57.052 137.848 57.484 138.142 57.9427H138.163C138.222 58.028 138.265 58.1458 138.297 58.2151C138.315 59.2992 138.278 60.3839 138.185 61.4641C138.099 61.3788 138.072 61.3519 137.928 61.2132C137.784 61.0746 137.629 60.9466 137.479 60.8186C137.453 59.421 137.356 58.0283 137.223 56.636ZM99.3857 57.7835C100.112 58.1089 102.088 58.8767 101.522 59.8635C101.223 60.3862 100.993 60.6794 100.348 60.5569C99.7024 60.4032 99.0766 60.1756 98.4833 59.8792L98.5048 59.8577C97.4315 59.3776 96.3635 58.8391 95.2421 58.4124C96.0537 57.9573 96.8615 57.4913 97.666 57.0149L99.3857 57.7835ZM128.267 50.8001C128.464 50.384 129.624 51.1199 130.003 51.3333C130.943 51.8667 131.883 52.3842 132.807 52.971L132.822 52.9983C133.958 53.6742 135.037 54.4415 136.048 55.2923C136.213 56.8018 136.353 58.3116 136.417 59.8264C136.225 59.6931 136.059 59.5486 135.883 59.4153C134.435 58.2791 132.925 57.2246 131.359 56.2571C130.532 55.7557 129.677 55.1906 128.822 54.7425C128.075 54.3691 127.268 54.0698 126.531 53.6751C126.253 53.5257 125.651 53.1957 126.088 52.9505C126.378 52.8214 126.656 52.6639 126.916 52.4807C127.203 52.2503 127.456 51.9804 127.669 51.68C127.856 51.4134 128.022 51.2006 128.177 50.9553L128.267 50.8001ZM96.4277 56.4973C95.5875 56.9881 94.745 57.4697 93.9013 57.9427L93.6718 57.8733C94.3072 57.3027 94.9802 56.7589 95.5995 56.1829L96.4277 56.4973ZM91.7167 55.1048C92.0419 55.0765 92.37 55.0962 92.6894 55.1634L91.8183 56.0706C91.5459 56.3586 91.284 56.6198 91.0117 56.8919C90.8462 57.0785 90.7186 57.3298 90.4785 57.4739C90.369 57.5371 90.2883 57.6405 90.2538 57.762C89.784 57.874 89.2824 57.9378 89.3408 57.6341C89.4102 57.0475 90.2104 56.3325 90.579 55.8684C90.7029 55.6673 90.8691 55.4942 91.0654 55.3626C91.2615 55.2311 91.4837 55.1431 91.7167 55.1048ZM94.4785 55.761C93.7735 56.3851 93.0303 56.9887 92.3681 57.6448L91.9335 57.6087C92.114 57.3809 92.2888 57.1741 92.4374 57.0149C92.9181 56.5188 93.3939 56.0174 93.8798 55.5266L94.4785 55.761ZM91.9335 57.6087C91.9326 57.6099 91.9316 57.6113 91.9306 57.6126L91.9091 57.6067L91.9335 57.6087Z" fill="black"/>
<path d="M176.101 41.2621C175.503 38.931 173.33 34.8288 171.594 32.631C169.858 30.4332 167.423 29.1636 166.323 28.9608C165.223 28.7581 163.888 28.8595 163.621 29.6277C163.354 30.3958 163.45 30.7639 163.119 31.3934C162.788 32.0228 162.35 32.9617 160.684 32.4603C159.017 31.9588 155.407 30.1931 153.837 26.395C152.267 22.5968 152.94 19.5242 153.704 18.2599C153.762 18.1692 153.821 18.0625 153.891 17.9452L154.083 17.6144L154.147 17.4971L154.371 17.113L154.43 17.0116L154.734 16.5049C155.918 14.4495 157.485 12.639 159.348 11.1704C162.451 8.86589 163.583 7.76699 164.021 6.7001C164.459 5.6332 164.721 4.10221 164.422 3.13133C164.172 2.44083 163.823 1.79032 163.386 1.20026C163.551 1.90191 163.662 2.6153 163.717 3.33404C163.756 4.2961 163.573 5.25425 163.183 6.13464C162.75 7.16953 161.148 8.76987 159.712 9.79942C158.275 10.829 156.107 12.4667 155.21 13.6029C154.508 14.4469 153.866 15.3381 153.287 16.2701L153.234 16.3502C153.148 16.4995 153.063 16.6435 152.983 16.7929L152.86 17.0383C152.801 17.145 152.748 17.2517 152.694 17.3584C152.604 17.5557 152.518 17.7531 152.438 17.9558C151.77 19.6522 150.836 23.4237 152.369 26.523C153.901 29.6223 155.509 31.2227 157.81 32.3216C160.112 33.4205 161.752 33.5912 162.782 33.1217C163.813 32.6523 163.984 32.3589 164.085 31.8575C164.187 31.356 163.888 30.2891 164.753 30.1238C165.618 29.9584 167.722 29.9904 170.227 33.1217C172.136 35.5376 173.605 38.2694 174.569 41.1928C175.387 44.108 175.823 47.1168 175.867 50.144C175.802 52.6459 174.601 55.7132 172.63 58.1457C170.66 60.5783 167.589 62.9788 165.356 64.4831L164.935 64.7551L164.79 64.8458L164.47 65.0485L164.294 65.1552L163.952 65.3633L163.792 65.4593L163.359 65.7153L163.274 65.7687L161.816 66.6809L161.672 66.7662C159.808 67.8705 157.987 68.996 157.373 69.7482C156.304 71.0498 155.434 72.3461 155.332 73.0823C155.279 73.5504 155.313 74.0244 155.434 74.4799C155.519 73.7546 155.745 73.0531 156.101 72.4154C156.784 71.578 157.608 70.8666 158.537 70.3137C159.274 69.9136 160.609 69.2148 161.143 68.98C161.592 68.7512 162.017 68.4796 162.414 68.1692H162.446L162.419 68.2065C162.072 68.8096 161.854 69.478 161.778 70.1696C161.677 71.2685 161.543 71.9033 161.842 72.4688C162.17 72.9243 162.336 73.4765 162.312 74.0371C162.211 74.87 161.905 75.6649 161.421 76.3509C160.938 77.0369 160.292 77.5927 159.541 77.9686C157.303 79.2062 156.069 79.569 153.164 79.4036C150.259 79.2382 147.092 78.9715 145.853 79.505C144.681 79.9295 143.663 80.6927 142.927 81.6974C142.932 81.382 142.883 81.0681 142.782 80.7692C140.287 78.0791 137.538 75.6353 134.574 73.4717C133.437 72.6715 131.979 71.6633 130.377 70.5751L131.001 69.3481C133.098 70.3872 135.264 71.2785 137.485 72.0154C140.689 73.0182 141.725 72.9489 142.558 72.8155C143.391 72.6822 143.861 72.4848 144.16 71.9834C144.929 70.6323 145.332 69.1044 145.33 67.5504C145.426 64.9792 145.228 61.2824 144.625 59.8154C144.021 58.3484 143.092 55.8786 141.688 54.3476C140.283 52.8166 135.749 48.3783 131.242 45.7751C126.734 43.1719 121.597 40.9101 118.857 40.0779C118.216 39.8805 117.538 39.6938 116.849 39.5444C117.597 39.5444 118.863 39.6191 120.737 39.7045C123.808 39.9457 126.848 40.4817 129.816 41.3048C132.134 41.9716 135.514 43.4386 137.159 44.0627C138.804 44.6869 145.463 46.8847 147.754 47.3968C148.282 47.51 148.818 47.5831 149.357 47.6155C150.722 47.6962 152.092 47.6102 153.437 47.3594C153.801 47.293 154.158 47.1948 154.505 47.066C154.782 46.9487 155.053 46.8169 155.316 46.6713C156.299 46.1378 157.266 45.487 157.266 45.487C157.249 45.6983 157.204 45.9064 157.132 46.1058C157.02 46.3575 156.896 46.6032 156.758 46.842C156.587 47.1514 156.385 47.4981 156.224 47.7755C155.955 48.1612 155.647 48.5186 155.306 48.8424C154.961 49.1951 154.591 49.5231 154.2 49.824C153.133 50.406 152.033 50.9261 150.905 51.3816C151.684 51.2075 152.452 50.983 153.202 50.7095C153.324 50.6615 153.437 50.6081 153.533 50.5601L153.784 50.4268C154.363 50.1439 154.902 49.7851 155.386 49.3599C155.851 49.0238 156.29 48.6528 156.7 48.2503C156.946 47.974 157.176 47.6837 157.389 47.3808C158.229 46.1711 158.764 44.7766 158.948 43.3159C159.014 42.5431 158.827 41.7698 158.414 41.1128C158.195 40.8372 157.913 40.6185 157.591 40.4755C157.269 40.3325 156.918 40.2692 156.566 40.2913C155.795 40.3366 155.04 40.5266 154.339 40.8514C154.212 40.905 154.076 40.9357 153.939 40.9421C153.004 40.9954 152.075 40.7708 151.268 40.2966C150.2 39.6298 147.931 36.7652 146.996 34.7647C145.851 32.0517 145.247 29.1417 145.218 26.1976C145.218 25.7122 145.218 25.2214 145.26 24.7359C145.527 20.8685 147.599 17.6678 148.668 15.9127C148.801 15.6887 148.94 15.4806 149.073 15.2833L149.18 15.1392C149.282 15.0005 149.383 14.8565 149.485 14.7285L149.586 14.6058L149.896 14.2377L149.971 14.1577C150.088 14.0243 150.2 13.9016 150.318 13.7789C150.814 13.2455 151.316 12.7867 151.824 12.2266C152.892 11.0477 155.632 9.64472 157.431 8.49248C159.231 7.34023 160.304 6.71076 160.838 6.1133C161.373 5.51584 162.083 4.40094 162.126 3.57943C162.152 2.83174 162.015 2.08723 161.725 1.39763C161.423 0.905295 161.082 0.437923 160.705 0C160.818 0.320337 160.914 0.646156 160.993 0.976208C161.157 1.67527 161.195 2.3977 161.105 3.11C161.036 4.24624 160.369 4.71034 159.503 5.73456C158.638 6.75877 155.808 8.35912 153.939 9.46869C151.886 10.6446 150.043 12.1535 148.486 13.9336L148.352 14.0777L148.053 14.4244L147.818 14.7018L147.562 15.0112C147.402 15.2086 147.247 15.4113 147.087 15.6193C147.023 15.694 146.964 15.7794 146.9 15.8594L146.521 16.3928L146.344 16.6382C146.163 16.8889 145.981 17.1717 145.81 17.4224C145.405 18.0261 145.047 18.6612 144.742 19.3215C144.596 19.6451 144.463 19.9705 144.342 20.2977C143.767 21.9048 143.458 23.5949 143.429 25.3014V26.2989C143.456 27.2659 143.547 28.2299 143.701 29.1849C143.89 30.3551 144.155 31.5117 144.497 32.647C145.382 35.6164 147.023 38.3056 149.26 40.4513C149.79 41.0131 150.427 41.462 151.135 41.771C151.843 42.0799 152.606 42.2426 153.378 42.249C153.623 42.2561 153.868 42.2255 154.104 42.1583C154.559 42.0036 154.982 41.7648 155.348 41.4542L155.514 41.3421C155.566 41.3057 155.621 41.2752 155.68 41.2515C156.14 41.1076 156.634 41.1076 157.095 41.2515C157.479 41.3688 157.581 41.8756 157.629 42.4891V42.7611C157.626 43.3197 157.459 43.865 157.148 44.3295C157.052 44.4895 156.951 44.6389 156.849 44.7829C156.734 44.9444 156.595 45.0882 156.438 45.2096C155.755 45.6915 155.002 46.0657 154.206 46.3192L153.511 46.5646C153.235 46.6493 152.95 46.7047 152.662 46.73C150.462 46.938 146.911 45.9725 145.88 45.7378L145.437 45.6311H145.356L145.17 45.5777L145.031 45.5404L144.876 45.4977L144.726 45.343L144.603 45.3057L144.326 45.2203H144.251L143.904 45.1083H143.872L142.996 44.8096C141.971 44.4681 140.86 44.0734 139.941 43.6947C137.917 42.8678 131.151 40.494 126.927 39.2937C122.702 38.0935 116.625 38.6002 115.023 38.6696C114.419 38.6696 113.607 38.7176 112.822 38.7389C112.08 38.63 111.33 38.5694 110.579 38.5576C108.443 38.5576 105.207 39.2937 104.075 39.9232C102.943 40.5526 100.369 42.2277 99.8986 42.5904C99.4286 42.9532 98.7076 43.6947 98.7076 43.6947C98.2613 44.1031 97.8764 44.5739 97.5648 45.0923C97.3492 45.4279 97.1702 45.7856 97.0307 46.1592C96.7849 46.6784 96.6695 47.2497 96.6943 47.8235C96.6376 48.5249 96.738 49.2301 96.988 49.888C97.2978 50.5548 97.8959 51.6643 97.9439 52.2885C97.992 52.9126 97.8532 52.998 97.4099 53.158C97.1629 53.1756 96.9148 53.1576 96.6729 53.1047C95.5461 52.6939 94.6168 52.3632 94.2377 52.2565C93.0681 51.9204 91.466 51.5577 91.0334 51.691C90.3366 51.9293 89.6822 52.2769 89.0948 52.7206C88.6622 53.1207 87.0601 54.5236 86.6596 54.8224C86.6596 54.8224 84.1229 57.623 83.5568 58.4551C82.9907 59.2873 82.4887 60.0555 82.4192 60.8236C82.3896 61.1974 82.404 61.5734 82.462 61.9439C82.5918 63.0174 82.9061 64.0605 83.3912 65.0272C83.7384 65.5129 83.9252 66.0947 83.9253 66.6916C83.9253 67.3584 83.9253 67.5824 83.3912 68.0678C83.1296 68.334 82.8129 68.5398 82.4632 68.6706C82.1136 68.8015 81.7395 68.8543 81.3672 68.8253H79.8184C79.482 68.7571 79.1411 68.7125 78.7984 68.692C75.7597 68.5266 75.5941 68.9907 75.0281 69.4281C74.0969 70.3154 73.2478 71.2849 72.4913 72.3248C71.7544 73.493 70.6863 75.3921 70.5207 76.1922C70.3334 76.7298 70.2535 77.299 70.2857 77.8673C70.2484 78.9662 70.8678 80.1611 71.0441 81.2066C71.2203 82.2522 70.996 82.6523 70.51 83.5645C70.0241 84.4767 69.4847 84.6314 67.6155 84.6314C67.3065 84.6292 66.9978 84.6488 66.6916 84.6901C66.645 84.6746 66.5965 84.6656 66.5474 84.6634C66.305 84.6464 66.0617 84.6788 65.8322 84.7586C65.6027 84.8384 65.3918 84.9639 65.2123 85.1275C64.9132 85.4956 64.7584 85.7196 64.6355 85.8743C64.6355 85.8743 63.2096 90.0512 63.0761 92.185C62.9426 94.3188 62.9853 95.7431 62.9853 95.7431V96.4099C62.9755 96.4725 62.9785 96.5365 62.9941 96.5979C63.0097 96.6593 63.0376 96.7169 63.0761 96.7673C63.2096 96.9647 71.9199 102.801 73.8265 103.867L77.7997 106.065L74.98 111.074C73.4847 110.066 72.1549 109.149 70.9533 108.332C66.9159 105.601 64.5447 104.033 64.0427 103.633C63.5407 103.233 63.0441 103.035 62.6756 103.265C62.3071 103.494 62.211 103.702 62.1415 104.268C62.0799 104.657 62.1036 105.056 62.211 105.436C62.211 105.436 64.4112 112.637 67.247 116.804C69.3832 119.962 70.9373 121.914 73.3939 124L56.5928 155.025L42.1469 181.596L43.6048 182.604L44.7851 180.444L74.9479 125.296C75.2791 125.552 75.6315 125.829 76.016 126.08C80.2243 129.116 81.1269 129.884 85.6289 131.783C86.3018 132.065 86.9586 132.316 87.6155 132.567L70.3338 163.55L63.9253 175.088L57.4366 186.733L55.7811 189.699C56.4433 190.025 57.1055 190.345 57.7731 190.654L58.8999 188.606L69.3351 169.545L72.1709 164.366L89.2604 133.138C92.6814 134.212 96.2154 134.887 99.7917 135.149C105.399 135.65 108.272 134.519 110.142 133.917C111.307 133.587 112.427 133.118 113.479 132.519C113.6 132.46 113.708 132.377 113.796 132.275C113.883 132.173 113.949 132.054 113.99 131.926C114.03 131.798 114.044 131.663 114.031 131.529C114.017 131.395 113.977 131.266 113.912 131.148C113.645 130.615 111.909 129.814 109.073 128.55C107.583 127.883 104.491 126.678 100.646 125.024L103.354 120.052C106.056 121.514 108.694 122.922 110.975 123.984C113.575 125.227 116.25 126.307 118.985 127.216C119.528 127.23 120.066 127.115 120.555 126.88C122.315 125.53 123.998 124.084 125.597 122.549C126.4 121.669 127.126 120.721 127.765 119.716C127.912 119.299 127.947 118.85 127.867 118.415C127.733 118.249 126.638 117.422 123.77 115.955C122.029 115.065 115.226 111.816 109.394 108.989L112.219 103.814C113.821 104.625 119.215 107.303 121.891 108.514C125.063 109.943 127.664 111.512 128.833 111.645C130.003 111.778 130.868 111.88 131.402 111.544C131.936 111.208 134.174 107.943 134.943 106.279C135.407 105.403 135.723 104.457 135.877 103.478C136.043 102.609 136.208 102.475 136.075 101.979C135.941 101.483 134.943 99.8453 132.304 97.5088C131.477 96.8222 130.612 96.1812 129.714 95.5884C129.668 95.4025 129.682 95.2069 129.753 95.0289C129.823 94.851 129.948 94.6997 130.11 94.5962C131.094 94.019 132.183 93.642 133.314 93.4866C134.698 93.3533 136.061 93.0524 137.373 92.5904C137.429 92.5965 137.487 92.5965 137.543 92.5904C138.311 92.5287 139.031 92.198 139.578 91.6569C140.636 90.1164 141.468 88.4334 142.051 86.6585C142.216 86.125 142.366 85.5062 142.494 84.9461C142.969 83.8312 143.738 82.3269 144.63 81.7454C146.099 80.8119 147.033 80.4118 148.369 80.4118C149.704 80.4118 153.132 80.9453 154.067 80.9026C155.001 80.8599 158.473 80.2358 159.541 79.6543C160.595 79.1189 161.52 78.3618 162.254 77.4352C163.012 76.4536 163.856 74.9653 163.589 73.8664C163.322 72.7675 162.387 72.0634 162.953 70.2977C163.103 69.8442 163.204 69.4708 163.295 69.1401C163.322 69.0441 163.354 68.948 163.381 68.8574C163.407 68.7667 163.381 68.7987 163.407 68.772C163.434 68.7453 163.471 68.5693 163.509 68.4733V68.4199C163.546 68.3239 163.589 68.2279 163.632 68.1319C163.68 68.0358 163.733 67.9452 163.786 67.8598C163.785 67.8492 163.785 67.8384 163.786 67.8278C163.847 67.7351 163.913 67.6461 163.984 67.5611L164.027 67.5131C164.101 67.4224 164.187 67.3317 164.283 67.2357L164.326 67.1877C164.433 67.0916 164.539 66.9903 164.673 66.8783C165.971 65.7794 169.143 63.5442 170.713 62.0132C172.283 60.4822 176.587 56.5774 176.919 51.5097C177.25 46.4419 176.705 43.5986 176.101 41.2621ZM129.009 69.6362C125.351 67.2143 121.228 64.5471 118.558 63.1015C115.888 61.6558 110.777 59.1273 107.188 57.3989L109.543 53.222C110.125 53.1684 110.711 53.1954 111.284 53.302C114.34 53.9157 117.287 54.9819 120.027 56.4654C122.462 57.8683 125.1 59.4687 126.238 60.3329C127.375 61.197 129.976 63.1015 130.574 63.7683C131.172 64.4351 131.397 64.6591 131.439 65.2352L129.009 69.6362ZM99.4019 51.7444C99.2853 51.1098 99.0822 50.4942 98.7984 49.9146L99.247 50.3307C100.518 51.467 102.788 52.998 103.621 53.6648C104.454 54.3316 105.891 55.2651 106.254 55.4838L105.602 56.6361C104.449 56.1026 103.589 55.7079 103.22 55.5692C102.494 55.2918 100.636 54.5876 98.7771 53.8942C99.0123 53.6724 99.1948 53.4008 99.3111 53.0993C99.448 52.6612 99.4791 52.1968 99.4019 51.7444ZM103.199 48.2663C103.525 48.1489 103.664 48.6664 103.343 48.7997C102.275 49.1678 101.255 49.6106 100.182 49.936C100.111 49.9544 100.036 49.9439 99.9724 49.9069C99.9093 49.8699 99.8636 49.8093 99.8451 49.7386C99.8267 49.6679 99.8372 49.5927 99.8743 49.5297C99.9113 49.4667 99.9719 49.4209 100.043 49.4025C101.111 49.0771 102.142 48.629 103.199 48.2663ZM100.817 46.9753C101.351 46.778 101.912 46.6446 102.446 46.4419C102.766 46.3192 102.905 46.8367 102.585 46.9753C102.051 47.1781 101.517 47.3168 100.983 47.5088C100.636 47.6101 100.497 47.0927 100.817 46.9753ZM108.587 48.5757C108.908 48.4583 109.047 48.9758 108.726 49.1091C106.537 49.8933 104.219 50.3147 102.029 51.1309C101.704 51.2483 101.565 50.7362 101.885 50.5975C104.075 49.8026 106.393 49.3865 108.587 48.597V48.5757ZM104.534 47.7969C105.025 47.6422 105.511 47.4661 106.003 47.3114C106.334 47.2047 106.473 47.7222 106.147 47.8449C105.656 47.9996 105.17 48.1756 104.678 48.3356C104.347 48.4423 104.208 47.9249 104.534 47.8182V47.7969ZM109.661 49.5732C108.704 49.9536 107.722 50.2708 106.724 50.5228C105.485 50.9335 104.262 51.3923 103.028 51.8244C102.708 51.9417 102.569 51.4243 102.889 51.2909C104.118 50.8535 105.335 50.3787 106.585 49.9893C107.54 49.7584 108.477 49.4589 109.389 49.0931C109.698 48.9864 109.971 49.4452 109.661 49.6106V49.5732ZM111.076 49.6853C111.413 49.6052 111.551 50.1227 111.22 50.2187C110.045 50.4961 108.977 51.0242 107.834 51.3976C106.692 51.771 105.442 52.0431 104.427 52.6566C104.134 52.8379 103.893 52.3738 104.16 52.1978C105.139 51.6958 106.171 51.3039 107.236 51.0295C108.523 50.6135 109.752 50.0267 111.081 49.7066L111.076 49.6853ZM105.565 53.6434C105.271 53.8248 105.031 53.3607 105.292 53.1847C106.003 52.7419 106.895 52.7419 107.589 52.2938C107.877 52.1071 108.123 52.5659 107.856 52.7526C107.156 53.2273 106.275 53.2273 105.565 53.6648V53.6434ZM113.939 51.2109C113.864 51.3763 113.607 51.419 113.458 51.4563C113.308 51.4936 113.02 51.563 112.951 51.595C112.646 51.7497 112.374 51.2909 112.684 51.1362C112.834 51.0697 112.992 51.0197 113.154 50.9869L113.415 50.9175C113.543 50.8748 113.527 50.8322 113.479 50.9175C113.624 50.6295 114.083 50.9015 113.939 51.2109ZM130.537 61.4584C130.275 61.3731 130.227 61.0103 130.174 60.7756C130.12 60.5409 130.051 60.1888 129.949 59.9061C129.848 59.6234 130.35 59.442 130.483 59.7621C130.563 59.9861 130.606 60.2262 130.665 60.4556C130.697 60.5889 130.729 60.7223 130.766 60.8503C130.777 60.901 130.792 60.9508 130.809 60.9997C130.809 61.053 130.852 61.0317 130.809 60.9997C130.777 60.9753 130.741 60.9571 130.702 60.9463C131.001 61.053 130.841 61.5705 130.537 61.4584ZM133.164 68.7026L133.132 68.6386C133.112 68.6026 133.101 68.5624 133.1 68.5213C132.86 67.7584 132.641 66.985 132.438 66.2061C132.42 66.1354 132.43 66.0602 132.467 65.9972C132.504 65.9342 132.565 65.8884 132.636 65.87C132.706 65.8517 132.782 65.8621 132.845 65.8991C132.908 65.9361 132.954 65.9967 132.972 66.0674C133.191 66.8836 133.415 67.6944 133.672 68.4999C133.698 68.5671 133.698 68.6423 133.669 68.7088C133.64 68.7753 133.587 68.8278 133.519 68.8547C133.452 68.8816 133.377 68.8806 133.31 68.8521C133.244 68.8236 133.191 68.7699 133.164 68.7026ZM133.052 61.5971C133.191 62.1306 133.437 62.616 133.554 63.1495C133.613 63.4322 133.202 63.6402 133.063 63.3522V63.2882L133.031 63.2135C133.026 63.187 133.026 63.1599 133.031 63.1335C132.908 62.664 132.7 62.2159 132.571 61.7465C132.574 61.6914 132.593 61.6384 132.626 61.5946C132.66 61.5509 132.706 61.5186 132.759 61.5022C132.812 61.4858 132.868 61.4862 132.921 61.5032C132.973 61.5202 133.019 61.553 133.052 61.5971ZM134.756 69.4922C134.602 68.6602 134.39 67.8401 134.12 67.0383C133.951 66.1775 133.686 65.3383 133.33 64.5364C133.164 64.2324 133.629 63.9656 133.794 64.2697C134.134 65.0237 134.39 65.8126 134.558 66.6222C134.861 67.5124 135.098 68.4234 135.268 69.3481C135.316 69.6842 134.804 69.8336 134.756 69.4922ZM136.892 70.6604C136.224 68.2492 135.365 65.9021 134.606 63.5229C134.499 63.1921 135.017 63.0534 135.14 63.3842C135.899 65.7634 136.742 68.1105 137.426 70.5164C137.435 70.5514 137.438 70.5879 137.433 70.6239C137.429 70.6599 137.417 70.6946 137.399 70.7261C137.381 70.7575 137.356 70.7851 137.328 70.8072C137.299 70.8294 137.266 70.8456 137.231 70.8551C137.196 70.8646 137.159 70.867 137.123 70.8624C137.087 70.8577 137.053 70.846 137.021 70.8279C136.99 70.8098 136.962 70.7857 136.94 70.757C136.918 70.7282 136.901 70.6954 136.892 70.6604ZM139.135 70.9698C139.031 70.3717 138.852 69.7891 138.601 69.2361C138.328 68.4146 138.024 67.6358 137.746 66.7929C137.64 66.4622 138.152 66.3235 138.28 66.6489C138.585 67.5664 138.905 68.4839 139.231 69.4015C139.457 69.9 139.612 70.428 139.69 70.9698C139.69 71.3165 139.156 71.3112 139.135 70.9485V70.9698ZM140.545 69.6895L140.513 69.6095C140.503 69.5674 140.503 69.5236 140.513 69.4815C140.48 69.2987 140.428 69.1198 140.358 68.948C140.214 68.6386 140.673 68.3666 140.817 68.6813C140.929 68.9613 141.017 69.2504 141.079 69.5455C141.154 69.8816 140.673 70.0043 140.545 69.6895ZM141.613 71.2472C141.586 71.2752 141.552 71.2968 141.516 71.3104C141.479 71.3239 141.44 71.3291 141.401 71.3255C141.362 71.322 141.324 71.3097 141.291 71.2897C141.257 71.2697 141.229 71.2424 141.207 71.2099C141.178 71.1846 141.155 71.1521 141.142 71.1157C141.129 71.0792 141.126 71.04 141.132 71.0018C141.095 70.8845 141.063 70.7724 141.02 70.6604C140.892 70.3403 141.41 70.2016 141.554 70.5164C141.613 70.7351 141.768 71.0445 141.607 71.2472H141.613ZM102.804 42.1957C104.075 41.5289 105.276 40.6967 106.809 40.3659C108.342 40.0352 109.244 39.5284 112.417 40.1312C116.239 40.8702 119.975 41.9981 123.567 43.4973C126.363 44.7009 129.033 46.1749 131.541 47.8982C134.045 49.5999 137.784 52.1658 138.718 52.966C140.671 54.5216 142.17 56.5719 143.06 58.9032C143.925 61.1805 144.355 63.5998 144.326 66.0354C144.317 66.9398 144.238 67.8422 144.091 68.7347C144.027 69.1027 143.925 69.8016 143.861 69.9723C143.797 70.143 142.259 67.4384 140.988 65.9714C139.717 64.5044 132.246 58.5031 129.672 56.9348C127.097 55.3665 121.495 52.1338 118.457 50.6668C115.418 49.1998 107.509 46.2659 104.774 45.8338C102.04 45.4017 99.3645 45.0656 98.8999 45.263C98.8999 45.263 101.538 42.8625 102.804 42.1957ZM98.2644 47.8395C98.7557 47.6422 99.2524 47.4715 99.7544 47.3061C100.085 47.2047 100.224 47.7168 99.8986 47.8395C99.3965 47.9996 98.8945 48.1756 98.4086 48.373C98.0828 48.485 97.9439 47.9676 98.2644 47.8395ZM84.6729 68.644C85.1391 67.9186 85.3074 67.0416 85.1429 66.1954C85.0619 65.8231 84.9288 65.4639 84.7477 65.1286C85.0681 65.3739 85.4206 65.63 85.8158 65.9021C87.8184 67.273 95.8291 71.9033 96.6622 72.3408H96.7156L94.9052 75.5414C92.5875 74.3145 90.7664 73.3543 89.9546 72.9382C88.1068 71.9994 85.6823 70.7724 83.3592 69.8656C83.8931 69.5845 84.3441 69.1689 84.6676 68.66L84.6729 68.644ZM87.7917 63.1655C87.5301 63.2135 87.2577 63.2402 87.0014 63.2722L86.51 63.3415L86.3338 63.3735H86.3018C86.0775 63.5122 85.7677 63.1815 85.992 62.9468C86.2163 62.712 86.5261 62.7867 86.745 62.7601C87.0548 62.7174 87.3645 62.6907 87.6689 62.6374C87.9733 62.584 88.1175 63.1175 87.7864 63.1815L87.7917 63.1655ZM88.7423 64.3177C89.0788 64.243 89.2176 64.7551 88.8812 64.8512C88.3837 64.9822 87.8765 65.0732 87.3645 65.1232C87.0227 65.1232 87.0227 64.5898 87.3645 64.5898C87.8282 64.5418 88.2872 64.4562 88.737 64.3337L88.7423 64.3177ZM91.4126 65.5873C92.1709 65.454 92.9239 65.3099 93.6769 65.1659C93.7158 65.1435 93.7602 65.1324 93.8051 65.1339H93.8692C94.1629 65.1339 94.243 65.598 93.9386 65.6673C93.0361 65.8434 92.1228 66.0247 91.2096 66.1688C90.5897 66.3091 89.962 66.4124 89.3298 66.4782C89.259 66.4782 89.1911 66.4501 89.141 66.4001C89.0909 66.35 89.0628 66.2822 89.0628 66.2115C89.0628 66.1407 89.0909 66.0729 89.141 66.0229C89.1911 65.9728 89.259 65.9447 89.3298 65.9447C90.0344 65.8826 90.7339 65.7721 91.4233 65.614L91.4126 65.5873ZM89.9119 64.067C90.2725 64.059 90.631 64.0089 90.98 63.9176C91.0508 63.8992 91.126 63.9097 91.1891 63.9467C91.2522 63.9837 91.298 64.0443 91.3164 64.115C91.3349 64.1857 91.3244 64.2609 91.2873 64.3239C91.2503 64.3869 91.1897 64.4327 91.1188 64.4511C90.7321 64.546 90.3366 64.6014 89.9386 64.6164C89.8678 64.6186 89.799 64.5925 89.7474 64.544C89.6959 64.4955 89.6657 64.4285 89.6636 64.3577C89.6614 64.287 89.6875 64.2183 89.7361 64.1668C89.7847 64.1153 89.8518 64.0851 89.9226 64.083L89.9119 64.067ZM95.3966 67.097C94.729 67.273 94.0401 67.353 93.3618 67.4757C92.5422 67.676 91.7085 67.8134 90.8678 67.8865C90.5207 67.8865 90.5207 67.353 90.8678 67.353C91.7664 67.262 92.6583 67.1141 93.5381 66.9103C94.0721 66.8196 94.6062 66.7396 95.1402 66.6062C95.1814 66.5719 95.2334 66.5532 95.2871 66.5532C95.3407 66.5532 95.3927 66.5719 95.4339 66.6062H95.466C95.5184 66.6291 95.5621 66.6681 95.5906 66.7177C95.6191 66.7672 95.6309 66.8246 95.6243 66.8813C95.6178 66.938 95.5931 66.9912 95.554 67.0329C95.5149 67.0746 95.4635 67.1027 95.4072 67.113L95.3966 67.097ZM96.3578 68.0518C96.6943 67.9825 96.8385 68.4946 96.502 68.5853H96.454C96.4231 68.6065 96.3879 68.6205 96.3509 68.626C96.3138 68.6316 96.276 68.6286 96.2403 68.6173C95.7888 68.6874 95.3413 68.7818 94.8999 68.9C94.8648 68.9095 94.8282 68.9119 94.7922 68.9073C94.7562 68.9026 94.7214 68.8909 94.69 68.8728C94.6585 68.8547 94.6309 68.8306 94.6087 68.8019C94.5865 68.7732 94.5702 68.7403 94.5608 68.7053C94.5513 68.6703 94.5488 68.6337 94.5535 68.5978C94.5582 68.5618 94.5699 68.5271 94.588 68.4956C94.6061 68.4642 94.6302 68.4366 94.659 68.4144C94.6878 68.3923 94.7206 68.376 94.7557 68.3666C95.2897 68.2492 95.8345 68.1745 96.3685 68.0678L96.3578 68.0518ZM93.8478 69.1187C93.5586 69.2439 93.2528 69.3266 92.9399 69.3641C92.9049 69.3736 92.8683 69.3761 92.8323 69.3714C92.7962 69.3667 92.7615 69.355 92.73 69.3369C92.6985 69.3188 92.6709 69.2947 92.6487 69.266C92.6266 69.2373 92.6103 69.2044 92.6008 69.1694C92.5914 69.1344 92.5889 69.0978 92.5936 69.0619C92.5982 69.0259 92.6099 68.9912 92.628 68.9597C92.6461 68.9283 92.6703 68.9007 92.6991 68.8785C92.7278 68.8564 92.7607 68.8401 92.7957 68.8307C93.0652 68.801 93.3294 68.7346 93.5808 68.6333C93.8852 68.4733 94.1522 68.9374 93.8585 69.1134L93.8478 69.1187ZM99.4339 71.1565C100.326 71.1938 102.024 71.5779 105.228 73.0076C111.503 75.8082 113.741 77.2751 115.146 78.1447C116.443 78.9448 120.652 81.9748 121.479 83.2658L118.531 88.6002L115.146 86.5731C113.009 85.3035 103.3 80.0757 96.454 76.4376L99.4339 71.1565ZM71.6636 84.6207C72.0855 83.9806 72.3739 83.7139 72.5982 81.8201C72.6768 81.1721 72.6037 80.5147 72.3845 79.8997C73.0361 80.4332 73.6823 80.9186 74.0668 81.212C74.996 81.9161 85.1429 88.6322 86.9319 89.7045L83.8451 95.247C79.8078 92.9265 76.2777 90.8567 74.8732 89.9125C72.1442 88.1361 70.4353 86.9519 69.5755 86.3491C70.4211 85.9652 71.1519 85.3676 71.6956 84.6154L71.6636 84.6207ZM77.239 82.0655C77.3163 81.969 77.4267 81.9044 77.5488 81.8841L77.7677 81.8308H77.8104C77.84 81.8052 77.8756 81.7874 77.9138 81.779C77.952 81.7706 77.9918 81.7719 78.0294 81.7828C78.0836 81.7934 78.1337 81.8193 78.1736 81.8575C78.216 81.8992 78.2432 81.9539 78.251 82.0128C78.2587 82.0718 78.2465 82.1316 78.2163 82.1829C78.1408 82.2778 78.032 82.3407 77.9119 82.3589L77.6876 82.4176C77.5434 82.4549 77.6075 82.4923 77.6876 82.3536C77.5434 82.615 77.0788 82.3482 77.271 82.0602L77.239 82.0655ZM79.5301 82.8177C79.5301 82.8177 79.6636 82.7803 79.6956 82.7697L79.8718 82.7216C80.1976 82.615 80.3418 83.1324 80.0107 83.2551C79.7811 83.3298 79.3805 83.4951 79.2203 83.2231C79.1658 83.1764 79.132 83.11 79.1265 83.0385C79.121 82.9669 79.1442 82.8961 79.1909 82.8417C79.2377 82.7872 79.3042 82.7535 79.3758 82.748C79.4474 82.7425 79.5183 82.7656 79.5728 82.8123L79.5301 82.8177ZM81.004 84.0126C81.2858 83.9691 81.5584 83.8789 81.8104 83.7459C81.8409 83.7283 81.8746 83.717 81.9095 83.7125C81.9444 83.708 81.9798 83.7104 82.0138 83.7195C82.0478 83.7287 82.0796 83.7444 82.1075 83.7659C82.1354 83.7873 82.1587 83.8141 82.1763 83.8446C82.1938 83.875 82.2051 83.9086 82.2097 83.9435C82.2142 83.9784 82.2118 84.0138 82.2026 84.0477C82.1934 84.0816 82.1777 84.1134 82.1562 84.1413C82.1347 84.1691 82.108 84.1924 82.0775 84.21C81.7868 84.3645 81.473 84.4708 81.1482 84.5247C80.8438 84.5834 80.6996 84.0659 81.0361 84.0072L81.004 84.0126ZM83.0548 85.4315C83.5621 85.3355 84.0641 85.2075 84.5608 85.0635C84.606 85.0223 84.6651 84.9994 84.7263 84.9995H84.8171C84.8822 85.0009 84.9447 85.0255 84.9932 85.069C85.0417 85.1125 85.0729 85.1719 85.0813 85.2364C85.0897 85.3009 85.0747 85.3663 85.039 85.4207C85.0032 85.4751 84.9491 85.5149 84.8865 85.5329C84.33 85.7028 83.7649 85.8435 83.1936 85.9543C82.8892 86.0077 82.745 85.4956 83.0868 85.4262L83.0548 85.4315ZM85.9973 87.2986C86.5935 87.3115 87.1894 87.2632 87.7757 87.1546C88.2457 87.1279 88.7156 87.0959 89.1856 87.0479C89.2422 87.0105 89.3114 86.9971 89.3779 87.0106H89.49C89.8104 87.0746 89.6929 87.5013 89.4206 87.544C88.6889 87.6347 87.9573 87.6507 87.2257 87.72C86.7751 87.804 86.316 87.8327 85.8585 87.8054C85.5488 87.7574 85.6929 87.2453 86.0294 87.2933L85.9973 87.2986ZM110.985 131.287L110.547 131.553C110.547 131.553 111.616 131.591 105.041 132.855C98.4673 134.119 90.5581 132.087 86.3178 130.156C81.5806 128.042 77.2263 125.16 73.4313 121.626C70.4494 118.887 68.1035 115.53 66.5581 111.789C65.8532 110.29 64.0214 105.425 64.0214 105.324C64.0214 105.324 69.725 109.389 71.765 110.824C73.8051 112.259 87.6155 120.458 92.3258 122.928C97.0361 125.397 111.017 131.281 111.017 131.281L110.985 131.287ZM98.8358 124.266C95.7704 122.917 92.3418 121.322 88.9186 119.519C84.6098 117.256 80.4209 114.772 76.3685 112.077L79.263 106.935C85.4793 110.354 94.9426 115.545 97.9546 117.15L101.693 119.167L98.8358 124.266ZM115.765 114.472C118.435 115.806 126.136 119.231 126.136 119.231C126.005 119.45 125.857 119.659 125.693 119.855C125.511 120.031 124.577 121.231 123.642 122.207C122.308 123.419 120.912 124.562 119.461 125.632C119.06 125.942 118.302 125.541 117.634 125.232C116.967 124.923 111.049 122.122 105.666 119.407C100.283 116.692 85.3245 108.252 81.1002 105.985C76.8759 103.718 65.9653 97.002 65.4793 96.4259C65.0981 95.9256 64.88 95.3204 64.8545 94.6922C64.7584 93.4932 64.7727 92.2878 64.8972 91.0914C65.0725 89.8599 65.386 88.6521 65.8318 87.4907C65.9913 87.0024 66.266 86.5596 66.6329 86.1997C66.6329 86.1997 68.9506 87.6667 72.3311 89.9818C75.7116 92.297 85.1055 97.9836 89.3298 100.384C93.5541 102.785 113.127 113.133 115.797 114.467L115.765 114.472ZM107.701 108.199C104.593 106.695 101.944 105.398 100.758 104.785C98.7397 103.718 91.6796 99.7653 85.3351 96.1378L88.6622 90.2219C90.6863 90.622 94.4032 91.3528 100.027 94.5482C106.782 98.3943 109.842 100.635 111.162 101.915L107.701 108.199ZM113.661 102.609C113.554 102.23 113.426 101.856 113.308 101.478C113.191 101.099 113.72 101.008 113.842 101.334C113.965 101.659 114.088 102.086 114.2 102.47C114.205 102.532 114.187 102.593 114.151 102.644C114.115 102.694 114.062 102.73 114.002 102.746C113.942 102.762 113.878 102.756 113.822 102.73C113.765 102.704 113.72 102.659 113.693 102.603L113.661 102.609ZM118.083 104.854C118.053 104.905 118.008 104.944 117.954 104.966C117.9 104.988 117.84 104.992 117.784 104.977C117.752 104.975 117.722 104.966 117.695 104.951C117.667 104.936 117.644 104.914 117.626 104.889C117.608 104.863 117.596 104.834 117.591 104.803C117.586 104.772 117.588 104.74 117.597 104.71V104.636L117.549 104.524L117.453 104.305C117.335 104.038 117.25 103.771 117.116 103.499C116.983 103.227 117.415 102.923 117.575 103.233C117.736 103.542 117.858 103.915 118.008 104.257C118.083 104.438 118.216 104.641 118.115 104.849L118.083 104.854ZM119.685 105.484C119.634 105.514 119.574 105.526 119.515 105.518C119.456 105.511 119.401 105.484 119.359 105.441L119.284 105.34C119.26 105.302 119.247 105.257 119.247 105.212C119.227 105.182 119.211 105.15 119.199 105.116C119.076 104.881 119.007 104.62 118.884 104.385C118.761 104.15 119.183 103.809 119.343 104.118C119.503 104.428 119.546 104.652 119.664 104.865C119.721 104.965 119.77 105.071 119.808 105.18C119.825 105.234 119.824 105.292 119.806 105.346C119.788 105.399 119.753 105.446 119.706 105.478L119.685 105.484ZM121.287 106.316C121.242 106.064 121.161 105.82 121.047 105.591C120.924 105.265 121.442 105.132 121.581 105.446C121.708 105.722 121.794 106.015 121.837 106.316C121.853 106.652 121.319 106.652 121.298 106.311L121.287 106.316ZM123.023 107.319C122.984 107.065 122.889 106.822 122.745 106.609C122.71 106.549 122.701 106.477 122.719 106.409C122.737 106.341 122.781 106.284 122.841 106.248C122.901 106.212 122.973 106.202 123.041 106.218C123.109 106.235 123.168 106.278 123.204 106.337C123.403 106.629 123.525 106.967 123.557 107.319C123.535 107.65 123.001 107.655 123.033 107.314L123.023 107.319ZM131.065 98.549C132.935 100.117 134.27 101.547 134.371 101.915C134.452 102.345 134.452 102.787 134.371 103.217C134.138 104.277 133.755 105.299 133.234 106.252C132.493 107.479 131.691 108.668 130.83 109.815C130.215 109.182 129.557 108.592 128.86 108.05C126.812 106.428 124.648 104.958 122.387 103.649C118.713 101.547 105.266 94.4788 101.96 92.6491C98.6542 90.8194 87.0494 84.5407 82.51 82.0708C77.9706 79.601 71.8612 76.9391 71.8986 76.8057C71.9663 76.5219 72.0555 76.2438 72.1656 75.9735C72.587 75.0558 73.065 74.165 73.5968 73.3063C74.4517 72.2018 75.3775 71.1541 76.3685 70.1696C76.5408 70.005 76.7466 69.8794 76.972 69.8016C77.239 69.7375 77.5701 69.6682 79.1082 70.0363C82.4182 71.0877 85.6338 72.4153 88.721 74.0051C91.3218 75.4401 103.37 82.2042 111.381 86.5411C119.391 90.878 129.207 96.9753 131.076 98.5437L131.065 98.549ZM131.733 92.3824C130.163 92.8091 128.294 93.6626 128.107 94.5482C125.64 92.9478 122.595 91.0648 120 89.4911L121.575 86.6051C122.344 86.9892 124.347 87.9654 125.96 88.6802C127.995 89.5818 131.365 91.3155 132.865 91.7476C133.122 91.8223 133.399 91.8969 133.709 91.9716C133.046 92.0656 132.39 92.201 131.744 92.377L131.733 92.3824ZM129.901 86.3757C130.184 86.9092 130.435 87.4426 130.67 87.9761C130.837 88.2675 130.978 88.5727 131.092 88.8883C131.103 88.928 131.104 88.9695 131.096 89.0098C131.088 89.0501 131.071 89.0881 131.047 89.121C131.022 89.1538 130.99 89.1806 130.954 89.1995C130.917 89.2183 130.877 89.2286 130.836 89.2297C130.801 89.2342 130.765 89.2305 130.731 89.2189C130.698 89.2073 130.667 89.188 130.643 89.1627C130.618 89.1374 130.599 89.1066 130.588 89.0729C130.577 89.0392 130.574 89.0034 130.579 88.9683C130.434 88.615 130.266 88.2712 130.077 87.9388C129.875 87.512 129.698 87.0692 129.469 86.6531C129.287 86.3384 129.773 86.0717 129.912 86.3704L129.901 86.3757ZM131.332 86.9092C131.178 86.5998 131.642 86.3331 131.797 86.6371C132.319 87.5559 132.751 88.5223 133.089 89.5231C133.105 89.5794 133.101 89.6392 133.079 89.6932C133.057 89.7473 133.018 89.7926 132.967 89.8223C132.917 89.8519 132.858 89.8643 132.8 89.8575C132.742 89.8506 132.688 89.825 132.646 89.7845L132.555 89.6938C132.52 89.6614 132.496 89.619 132.485 89.5723C132.475 89.5256 132.479 89.4768 132.497 89.4324C132.179 88.5556 131.793 87.7048 131.343 86.8879L131.332 86.9092ZM135.023 90.6753C134.977 90.6359 134.94 90.5867 134.916 90.5313C134.9 90.4791 134.9 90.4235 134.916 90.3713C134.704 89.803 134.46 89.2473 134.184 88.7069C134.045 88.3975 134.505 88.1255 134.644 88.4402C134.979 89.0744 135.263 89.7344 135.493 90.4139C135.502 90.4707 135.494 90.529 135.468 90.5805C135.443 90.6321 135.402 90.6743 135.351 90.7009C135.299 90.7276 135.241 90.7374 135.184 90.729C135.127 90.7206 135.075 90.6943 135.033 90.654L135.023 90.6753ZM140.678 85.8743C140.228 87.3771 139.553 88.8033 138.676 90.1045C138.557 90.0009 138.455 89.8784 138.377 89.7418C138.243 89.5071 138.072 89.107 135.872 87.4053C133.672 85.7036 122.852 78.5394 120.085 76.7684C117.319 74.9973 106.911 69.3481 104.774 68.2812C102.638 67.2143 98.2964 65.55 94.729 64.179C91.1616 62.8081 84.1442 60.5462 84.1442 60.5462C84.1602 60.4193 84.1944 60.2954 84.2457 60.1782C84.3151 60.0821 84.8118 59.2126 85.1803 58.6472C85.5488 58.0817 87.3164 56.1133 87.8825 55.4785C88.8091 54.6292 89.7788 53.8279 90.7877 53.078C91.0548 53.046 92.8919 53.6434 95.3966 54.513C97.9012 55.3825 107.178 59.1113 110.013 60.5783C112.849 62.0452 120.929 66.1794 125.768 69.2148C130.606 72.2501 140.689 80.5505 141.122 81.1533C141.252 81.3081 141.346 81.4898 141.398 81.6853C141.45 81.8808 141.457 82.0853 141.421 82.2842C141.421 82.5083 141.458 83.3084 140.689 85.8423L140.678 85.8743Z" fill="black"/>
<path d="M127.193 87.576C127.193 87.576 130.13 89.0423 130.397 89.576C130.663 90.1075 135.589 90.9041 135.626 90.91L138.921 91.0164C138.609 91.2924 138.247 91.5046 137.853 91.6404C137.319 91.7098 134.045 92.8357 133.714 92.9051C133.381 92.9751 130.778 93.7099 130.446 93.7742C129.934 93.9088 129.471 94.1863 129.111 94.574C128.908 94.9101 128.577 95.5773 128.908 95.908C129.042 96.0681 129.506 96.4576 129.976 96.8309L129.864 96.7772L126.793 94.6434L120.251 91.0428V89.3094L121.453 85.575L127.193 87.576ZM84.6083 96.3885C84.5976 96.3845 84.3164 96.2774 83.5449 95.8856C83.7841 95.9232 84.0207 95.9253 84.2451 95.8709C84.6386 95.6942 84.9862 95.4352 85.2704 95.117L84.6083 96.3885ZM126.985 92.9207C126.622 91.9342 125.5 92.2864 125.634 93.3104L125.703 93.0438C126.024 94.0197 127.439 94.1529 126.985 92.9207ZM83.8027 60.7703L86.4775 63.7147L97.9599 72.6502L95.0224 76.9178L80.7372 69.7156L76.5986 70.116L74.996 70.9158L72.1923 74.784L72.0585 78.3846L87.9462 89.9871L86.1328 93.4627C86.2939 92.9054 86.3601 92.3222 86.3173 91.7371C86.2159 90.4942 85.0627 89.5224 83.9999 89.0369C82.4121 88.3285 80.6434 88.1296 78.9374 88.4666C77.9922 88.6533 76.3951 89.2616 76.2402 90.4031C76.1762 90.894 76.7742 92.3174 77.4042 92.2059L77.2714 92.243C77.7733 92.483 78.27 92.8462 78.7665 93.1502C79.054 93.3225 79.3312 93.5074 79.6044 93.6971C78.9513 93.3149 78.2182 92.8821 77.3994 92.3875C74.006 90.2935 70.7904 87.9243 67.7861 85.3035L69.6503 85.1375L71.1611 83.8045L71.7861 79.9852C71.7861 79.9852 71.2519 76.9599 71.2519 76.6932C71.5895 75.3557 72.0369 74.0479 72.5878 72.783C72.8564 72.4244 76.2353 69.5828 76.2353 69.5828L80.1494 69.6678L83.5351 69.1346L84.6894 67.1824C84.6894 67.1824 84.5183 64.6032 84.3369 64.3338C84.1553 64.0671 83.2627 61.9326 83.3535 61.6658C83.444 61.3993 83.7103 59.4585 83.7119 59.4471L86.7929 55.9686L83.8027 60.7703ZM125.421 90.5584C126.361 89.0275 124.571 84.93 123.033 87.3084L123.167 86.909C120.85 87.7893 123.968 92.926 125.421 90.5584ZM78.0458 85.0213C77.3132 84.8381 76.5379 84.9265 75.8661 85.2713C75.7425 85.3444 75.6349 85.4418 75.5497 85.5574C75.4646 85.6732 75.403 85.8053 75.3701 85.9451C75.3371 86.0851 75.3327 86.2312 75.3574 86.3729C75.3821 86.5145 75.4353 86.6497 75.5136 86.7703C75.9996 87.4051 76.9027 87.3354 77.5703 87.0047H77.5917C77.8628 86.848 78.1469 86.7146 78.4404 86.6053C78.6166 86.5573 78.9374 86.4396 79.1083 86.5408L79.0673 86.5203C79.3458 86.5949 79.3588 85.8654 79.3007 85.7195C79.1246 85.293 78.4518 85.112 78.0458 85.0213ZM161.393 0.954896C161.26 0.757521 164.128 3.15802 164.128 3.15802C164.131 3.19113 164.328 5.62689 163.861 6.35822C163.315 7.21178 162.666 7.99465 161.928 8.68927C161.527 8.95626 156.72 12.4931 155.252 14.6268C153.783 16.7606 152.246 20.4255 152.246 21.8924C152.246 23.3594 152.844 26.4319 153.581 27.6961C154.318 28.9604 156.118 30.9658 157.319 31.5633C158.521 32.1608 161.859 33.1587 162.526 32.8279C163.194 32.4973 163.53 32.2947 163.664 31.7615C163.798 31.2281 163.797 30.0326 164.064 29.8299C164.334 29.6275 168.203 29.8307 169.404 31.0945C170.606 32.3641 177.143 41.1659 176.411 48.5008C175.68 55.8346 174.073 58.1661 172.94 59.2332C171.81 60.2983 167.417 63.7566 167.402 63.7684C167.402 63.7684 163.327 67.1711 162.996 68.1688C162.695 69.056 162.493 69.9737 162.393 70.9051C162.393 71.3051 162.793 73.7048 162.862 74.2391C163.015 74.7991 162.941 75.397 162.659 75.9041C162.257 76.7049 157.858 79.905 155.386 80.1717C152.913 80.4384 150.04 80.3744 149.709 80.241C149.378 80.1077 147.178 79.7713 146.574 80.0379C145.971 80.3046 144.769 80.4382 144.305 80.9715C144.096 81.2115 143.359 82.2836 142.617 83.409L141.479 80.3738L130.932 72.2391L130.131 70.3719C130.141 70.3615 132.535 67.9731 132.935 68.6385C133.335 69.3053 136.673 70.2389 137.073 70.5057C137.474 70.7724 142.948 72.639 143.482 72.5057C144.016 72.3718 144.951 71.1719 145.218 69.5721C145.485 67.9717 145.485 62.7703 142.814 56.369C140.144 49.9677 119.718 41.2996 113.843 39.699C107.982 38.1023 100.525 43.4083 100.491 43.4324L98.1308 46.6336C98.2216 46.3669 99.0224 44.3182 99.0224 44.3182L105.164 40.0506C105.164 40.0506 111.472 39.2514 111.925 39.2508C112.372 39.2508 116.88 39.1655 116.913 39.1649C116.913 39.1649 127.68 39.6133 130.083 40.4988C132.486 41.3844 141.923 44.9422 141.923 44.9422C141.955 44.9516 148.958 46.991 150.2 47.1668C151.444 47.3428 154.564 46.367 155.632 46.0096C156.571 45.5779 157.441 45.0074 158.211 44.3182C158.212 44.2991 158.254 43.2235 158.254 42.4305C158.254 41.6303 157.458 40.6961 156.854 40.6961C156.251 40.6962 153.651 41.9019 153.116 41.5662C152.582 41.2302 147.572 39.6346 146.237 35.2977C144.902 30.9607 143.364 22.4895 146.371 18.158C149.377 13.8268 150.643 12.3544 152.779 10.9568C154.915 9.5593 159.252 7.42037 160.123 6.15607C160.993 4.89207 161.655 3.76092 161.592 3.15802C161.528 2.55532 161.527 1.15262 161.393 0.954896ZM139.722 75.616C140.646 75.0612 140.048 73.4289 138.921 73.8397V73.8182L138.787 73.8817C137.821 74.2448 138.675 76.2656 139.722 75.616ZM135.781 72.783C135.172 72.2869 133.201 71.6688 132.731 72.5701L136.539 75.5731C137.564 75.6691 136.182 73.1191 135.76 72.783H135.781ZM89.7411 67.7684C89.33 67.2833 88.7368 67.7049 88.4911 68.1209C88.3694 68.3537 88.3024 68.6113 88.2958 68.8738C88.2894 69.1364 88.344 69.3971 88.454 69.6356C88.7544 70.63 89.3974 71.4867 90.2695 72.0526C91.0759 72.586 92.6731 73.1192 93.33 72.0897C93.8638 71.2575 93.3933 70.0523 92.8593 69.3162C92.1906 68.4363 90.805 67.3938 89.6767 67.4383L89.7411 67.7684ZM153.404 68.7879C153.271 67.5344 151.989 67.4913 151.044 67.9608V67.95C150.093 68.4194 149.084 69.5236 149.041 70.617L149.089 70.4842C149.041 70.8678 149.292 70.9049 149.575 70.8836C149.938 70.8516 150.238 70.5638 150.569 70.4305C151.008 70.2555 151.467 70.1375 151.935 70.0789C152.801 69.9616 153.538 69.8973 153.404 68.7879ZM148.4 58.7C147.866 57.0095 144.876 58.8813 143.658 58.1453L143.637 58.1668L143.727 58.2996C143.567 58.609 144.064 59.6017 144.16 59.9539C144.315 60.4873 144.401 61.2284 145.015 61.4578C146.478 61.9913 148.934 60.391 148.4 58.7ZM150.189 60.4813C150.594 59.799 149.432 59.5969 149.122 60.1776C148.529 60.8122 149.879 61.0151 150.211 60.4608L150.189 60.4813ZM174.542 52.3738C173.036 51.6697 171.055 53.4405 170.355 54.6141C169.757 55.6116 168.833 57.2225 169.218 58.4227C169.311 58.6674 169.458 58.8892 169.645 59.0721C169.833 59.2548 170.058 59.395 170.306 59.4822C170.553 59.5694 170.816 59.6013 171.077 59.577C171.338 59.5525 171.592 59.4722 171.818 59.3406C173.073 58.6045 174.681 56.6033 174.985 55.1043C175.653 54.3254 175.471 52.8114 174.553 52.3846L174.542 52.3738ZM102.094 48.7674L108.102 55.035L105.432 57.8358L95.2841 54.1014L90.8788 52.7684L86.9697 55.7557L89.2285 53.2108L91.455 52.4109L96.2617 53.9207H98.4882C98.4882 53.9207 98.6645 50.9013 98.4882 50.6346C98.3067 50.3671 98.04 46.9005 98.1308 46.6336L102.094 48.7674ZM103.941 55.8358C103.776 54.6571 101.971 53.9158 102.269 55.4783V55.4998L102.339 55.035C102.419 56.1018 104.187 57.4142 103.941 55.8358ZM101.752 51.6317C101.565 51.2235 100.898 50.8258 100.667 51.3397V51.3016C99.4343 51.9634 100.758 54.2775 101.666 53.2322C101.805 52.9909 101.885 52.7201 101.899 52.4422C101.914 52.1643 101.864 51.8863 101.752 51.6317ZM153.452 49.0984C152.911 49.088 152.37 49.1596 151.851 49.3113C150.601 49.5033 149.239 49.2259 147.978 49.4285C146.43 49.674 147.253 50.7416 148.385 50.8963C149.447 51.0461 150.526 51.0461 151.589 50.8963C152.352 50.8469 153.09 50.6101 153.74 50.2098C153.743 50.2067 153.748 50.206 153.751 50.2029C153.769 50.1919 153.787 50.181 153.805 50.1697C153.904 50.0949 153.98 49.9913 154.018 49.8729C154.057 49.7545 154.058 49.6268 154.022 49.5076C153.986 49.3884 153.914 49.2829 153.816 49.2059C153.718 49.1288 153.598 49.084 153.474 49.077L153.452 49.0984ZM173.335 50.2078C174.216 49.1037 172.582 48.4902 172.32 49.4022C171.317 49.9037 172.262 51.5783 173.346 50.2186L173.335 50.2078ZM137.501 47.9246C138.611 46.671 137.388 44.6064 136.117 46.2332V46.2117L136.315 45.9451C134.526 46.9533 136.086 49.5567 137.501 47.9246ZM157.725 37.5115C156.689 37.2664 155.434 37.8214 155.407 39.032C155.381 40.2426 156.598 40.3762 157.495 40.7762C157.906 41.2131 158.205 41.7439 158.364 42.3221C158.523 42.9004 158.538 43.509 158.408 44.0945C158.168 45.6094 157.121 46.7619 156.753 48.1541C158.28 48.41 159.797 45.1716 160.08 44.0994C160.641 41.9283 160.56 38.1836 157.725 37.5115ZM131.241 43.2088C130.003 43.2092 129.816 44.7291 130.174 45.6092H130.307C130.344 45.6731 130.387 45.7372 130.425 45.8065C130.994 46.7173 131.887 47.3802 132.924 47.6629C134.446 47.9669 134.125 46.404 133.794 45.5291C133.399 44.5103 132.48 43.2355 131.241 43.2088Z" fill="black"/>
</svg>
