<svg xmlns="http://www.w3.org/2000/svg">
<symbol id="arrow1" viewBox="0 0 17 17">
  <path d="M.134 9.12V7.88l13.974-.006L7.86 1.628l.876-.876L16.485 8.5l-7.748 7.748-.876-.876 6.247-6.246L.134 9.119Z"/>
</symbol>
<symbol id="arrow2" viewBox="0 0 7 12">
  <path d="M6.53 5.47a.75.75 0 0 1 0 1.06l-4.773 4.773a.75.75 0 1 1-1.06-1.06L4.939 6 .697 1.757a.75.75 0 0 1 1.06-1.06L6.53 5.47ZM6 6v-.75 1.5V6Z"/>
</symbol>
<symbol id="chek1" viewBox="0 0 15 12">
  <path d="m14.76 1.65-8.352 9.757L.353 6.262l1.294-1.524 4.537 3.855L13.24.35l1.52 1.3Z"/>
</symbol>
<symbol id="close" viewBox="0 0 16 16">
  <path d="M1.314 16 0 14.686 6.686 8 0 1.314 1.314 0 8 6.686 14.686 0 16 1.314 9.314 8 16 14.686 14.686 16 8 9.314 1.314 16Z"/>
</symbol>
<symbol id="instagram" viewBox="0 0 24 24">
  <path d="M17.66.787H6.34a5.662 5.662 0 0 0-5.66 5.66v11.32a5.662 5.662 0 0 0 5.66 5.66h11.32a5.662 5.662 0 0 0 5.66-5.66V6.447a5.662 5.662 0 0 0-5.66-5.66ZM12 17.767a5.662 5.662 0 0 1-5.66-5.66A5.662 5.662 0 0 1 12 6.447a5.662 5.662 0 0 1 5.66 5.66 5.662 5.662 0 0 1-5.66 5.66Z"/>
  <path d="M12 15.503a3.396 3.396 0 1 0 0-6.792 3.396 3.396 0 0 0 0 6.792Z"/>
</symbol>
<symbol id="menu" viewBox="0 0 16 8">
  <path d="M0 .817h16v1H0zm0 6h16v1H0z"/>
</symbol>
<symbol id="play" viewBox="0 0 16 18">
  <path d="M14.75 7.7a1.5 1.5 0 0 1 0 2.599l-12 6.928A1.5 1.5 0 0 1 .5 15.928V2.072a1.5 1.5 0 0 1 2.25-1.3l12 6.929Z"/>
</symbol>
<symbol id="plus" viewBox="0 0 14 15">
  <path d="M6.243.701h1.51V14.3h-1.51V.701Z"/>
  <path d="M13.797 6.745v1.51H.2v-1.51h13.598Z"/>
</symbol>
<symbol id="quote" viewBox="0 0 65 54">
  <path d="M23.208 1.657c2.524 1.735 4.339 3.55 5.443 5.442.947 1.894 1.104 3.866.473 5.916-.473 3.63-1.262 7.021-2.366 10.176a131.552 131.552 0 0 0-3.313 9.23 28.897 28.897 0 0 1-4.733 9.938 122.436 122.436 0 0 1-7.336 8.993c.158.631-.316 1.026-1.42 1.183-1.104.158-2.524.552-4.26 1.184-1.735.157-2.76.157-3.076 0-.473-.158-1.262-.71-2.367-1.657-.315-1.104-.157-2.13.474-3.076.473-.79 1.104-1.815 1.893-3.077 1.893-2.997 4.102-6.705 6.626-11.122 2.366-4.418 3.944-7.81 4.733-10.176 0-.63.079-1.183.237-1.656-2.682.473-5.443-.474-8.283-2.84-2.998-2.84-3.944-5.758-2.84-8.756.947-2.84 3.471-5.68 7.573-8.52 2.84-1.735 4.97-2.681 6.39-2.839 1.261 0 3.312.552 6.152 1.657Zm35.497 0c2.524 1.735 4.338 3.55 5.443 5.442.946 1.894 1.104 3.866.473 5.916-.473 3.63-1.262 7.021-2.366 10.176a131.552 131.552 0 0 0-3.314 9.23 28.897 28.897 0 0 1-4.732 9.938 122.436 122.436 0 0 1-7.336 8.993c.157.631-.316 1.026-1.42 1.183-1.105.158-2.525.552-4.26 1.184-1.735.157-2.76.157-3.076 0-.474-.158-1.262-.71-2.367-1.657-.315-1.104-.157-2.13.474-3.076.473-.79 1.104-1.815 1.893-3.077 1.893-2.997 4.102-6.705 6.626-11.122 2.366-4.418 3.944-7.81 4.733-10.176 0-.63.079-1.183.236-1.656-2.682.473-5.443-.474-8.282-2.84-2.998-2.84-3.944-5.758-2.84-8.756.947-2.84 3.47-5.68 7.573-8.52 2.84-1.735 4.97-2.681 6.39-2.839 1.261 0 3.312.552 6.152 1.657Z"/>
</symbol>
<symbol id="rutube" viewBox="0 0 28 23">
  <path d="m12.858 12.978-6.651 9.291a1.593 1.593 0 0 1-1.492.654 5.34 5.34 0 0 1-2.504-1.005 5.53 5.53 0 0 1-1.755-2.057 1.612 1.612 0 0 1 .136-1.627l6.652-9.292a3.604 3.604 0 0 1 1.212-1.06l1.308-.694a2.56 2.56 0 0 0 .694-.543c.638-.717 2.336-2.608 5.367-5.662l.056-.24c.016-.055.056-.103.112-.111l.167-.04a.148.148 0 0 0 .112-.16l-.016-.207a.143.143 0 0 1 .143-.16c.2-.007.59.056 1.14.447.551.399.735.75.79.941a.155.155 0 0 1-.111.192l-.2.048c-.071.016-.12.087-.12.16l.017.175c.008.055-.024.111-.072.143l-.215.128c-1.915 3.844-3.159 6.07-3.637 6.907a2.389 2.389 0 0 0-.295.837l-.232 1.467a3.477 3.477 0 0 1-.606 1.468Zm14.547 5.248-6.651-9.292a3.603 3.603 0 0 0-1.212-1.06l-1.308-.694a2.55 2.55 0 0 1-.694-.543c-.16-.175-.383-.43-.67-.75-.048-.047-.128-.04-.16.025-1.005 1.938-1.69 3.142-1.993 3.684a1.758 1.758 0 0 0-.2.55 4.172 4.172 0 0 0 0 1.26l.008.072c.088.535.295 1.045.614 1.492l6.652 9.291c.335.47.901.726 1.475.654a5.418 5.418 0 0 0 2.52-1.005 5.53 5.53 0 0 0 1.755-2.057 1.593 1.593 0 0 0-.136-1.627ZM9.78 1.629l.2.048c.07.016.119.087.119.16l-.016.175c-.008.055.024.111.072.143l.215.128c.35.71.686 1.364.989 1.962.032.056.104.072.151.024.503-.535 1.101-1.173 1.81-1.906.057-.064.065-.16 0-.216-.358-.367-.733-.75-1.148-1.164l-.055-.24c-.008-.055-.056-.095-.112-.111l-.168-.04a.148.148 0 0 1-.111-.16l.016-.207a.143.143 0 0 0-.144-.16c-.2-.007-.59.048-1.148.447-.55.399-.734.75-.79.941-.016.072.04.16.12.176Z"/>
</symbol>
<symbol id="telegram" viewBox="0 0 19 18">
  <path d="M17.515.607c-.152.06-4.093 1.674-8.759 3.59C3.531 6.34.236 7.716.174 7.777c-.13.132-.202.395-.164.61.065.368.088.38 2.533 1.265 1.87.676 2.249.8 2.323.757.049-.028.59-.38 1.203-.783l5.142-3.369c4.132-2.705 4.161-2.722 4.161-2.46 0 .054-1.366 1.432-3.85 3.882a853.984 853.984 0 0 0-3.951 3.91c-.1.11-.104.156-.243 2.282-.1 1.526-.129 2.207-.1 2.296.05.149.236.259.367.215.05-.018.646-.612 1.323-1.322.677-.71 1.247-1.29 1.267-1.29.02 0 1.023.802 2.23 1.783 1.206.98 2.26 1.82 2.342 1.867.32.182.79.038 1.013-.31.072-.112.45-1.88 1.662-7.774C18.293 5.142 19 1.648 19 1.574c0-.272-.1-.506-.317-.738-.334-.358-.668-.423-1.168-.229Z"/>
</symbol>
<symbol id="vk" viewBox="0 0 24 14">
  <path d="M.121.738A.949.949 0 0 1 .38.562C.488.517.901.503 2.186.502c1.538 0 1.681.006 1.863.083.25.106.44.35.626.803C5.68 3.84 6.703 5.654 7.782 6.895c.826.95 1.506 1.21 1.676.64.03-.101.049-.971.049-2.326 0-1.997-.007-2.19-.09-2.494-.116-.42-.254-.667-.609-1.095-.156-.188-.296-.406-.312-.484-.04-.197.08-.44.27-.548.15-.085.23-.088 2.468-.088 2.607 0 2.527-.01 2.687.32.085.172.09.322.09 2.792.001 1.747.019 2.673.053 2.8.101.374.39.476.797.283.255-.121.911-.711 1.308-1.175.913-1.07 1.86-2.571 2.72-4.312.175-.355.411-.577.702-.657.122-.035.707-.051 1.797-.051 1.582 0 1.62.002 1.825.098.308.145.36.323.234.793-.227.838-1.179 2.337-3.377 5.318-.337.456-.379.535-.379.71 0 .11.034.259.075.333.04.073.51.549 1.04 1.056 1.664 1.587 2.552 2.59 2.953 3.33.343.636.321 1.018-.072 1.246-.168.097-.199.099-1.855.111-1.876.015-1.91.01-2.328-.274-.126-.086-.644-.569-1.152-1.073-1.73-1.719-2.813-2.48-3.584-2.52-.401-.02-.552.036-.65.243-.068.14-.083.387-.104 1.634-.024 1.407-.03 1.475-.124 1.593-.26.323-.75.423-1.919.392-.963-.026-1.449-.105-2.345-.383-1.412-.436-2.704-1.194-3.937-2.308-.895-.808-1.692-1.764-2.703-3.24C.962 4.608-.43 1.294.12.739Z"/>
</symbol>
<symbol id="youtube" viewBox="0 0 22 17">
  <path d="M21.547 3.004c-.254-.98-.997-1.751-1.94-2.015C17.888.5 11 .5 11 .5S4.114.5 2.392.97C1.468 1.235.707 2.026.453 3.005 0 4.792 0 8.5 0 8.5s0 3.727.453 5.496c.254.98.997 1.751 1.94 2.015C4.131 16.5 11 16.5 11 16.5s6.886 0 8.608-.47c.942-.264 1.685-1.036 1.939-2.015C22 12.227 22 8.52 22 8.52s.018-3.727-.453-5.515Zm-12.74 8.922V5.074L14.534 8.5l-5.727 3.426Z"/>
</symbol>
</svg>