<svg xmlns="http://www.w3.org/2000/svg" width="65" height="54" fill="currentColor" viewBox="0 0 65 54">
  <path d="M23.208 1.657c2.524 1.735 4.339 3.55 5.443 5.442.947 1.894 1.104 3.866.473 5.916-.473 3.63-1.262 7.021-2.366 10.176a131.552 131.552 0 0 0-3.313 9.23 28.897 28.897 0 0 1-4.733 9.938 122.436 122.436 0 0 1-7.336 8.993c.158.631-.316 1.026-1.42 1.183-1.104.158-2.524.552-4.26 1.184-1.735.157-2.76.157-3.076 0-.473-.158-1.262-.71-2.367-1.657-.315-1.104-.157-2.13.474-3.076.473-.79 1.104-1.815 1.893-3.077 1.893-2.997 4.102-6.705 6.626-11.122 2.366-4.418 3.944-7.81 4.733-10.176 0-.63.079-1.183.237-1.656-2.682.473-5.443-.474-8.283-2.84-2.998-2.84-3.944-5.758-2.84-8.756.947-2.84 3.471-5.68 7.573-8.52 2.84-1.735 4.97-2.681 6.39-2.839 1.261 0 3.312.552 6.152 1.657Zm35.497 0c2.524 1.735 4.338 3.55 5.443 5.442.946 1.894 1.104 3.866.473 5.916-.473 3.63-1.262 7.021-2.366 10.176a131.552 131.552 0 0 0-3.314 9.23 28.897 28.897 0 0 1-4.732 9.938 122.436 122.436 0 0 1-7.336 8.993c.157.631-.316 1.026-1.42 1.183-1.105.158-2.525.552-4.26 1.184-1.735.157-2.76.157-3.076 0-.474-.158-1.262-.71-2.367-1.657-.315-1.104-.157-2.13.474-3.076.473-.79 1.104-1.815 1.893-3.077 1.893-2.997 4.102-6.705 6.626-11.122 2.366-4.418 3.944-7.81 4.733-10.176 0-.63.079-1.183.236-1.656-2.682.473-5.443-.474-8.282-2.84-2.998-2.84-3.944-5.758-2.84-8.756.947-2.84 3.47-5.68 7.573-8.52 2.84-1.735 4.97-2.681 6.39-2.839 1.261 0 3.312.552 6.152 1.657Z"/>
</svg>
