<svg xmlns="http://www.w3.org/2000/svg" width="28" height="23" fill="currentColor" viewBox="0 0 28 23">
  <path d="m12.858 12.978-6.651 9.291a1.593 1.593 0 0 1-1.492.654 5.34 5.34 0 0 1-2.504-1.005 5.53 5.53 0 0 1-1.755-2.057 1.612 1.612 0 0 1 .136-1.627l6.652-9.292a3.604 3.604 0 0 1 1.212-1.06l1.308-.694a2.56 2.56 0 0 0 .694-.543c.638-.717 2.336-2.608 5.367-5.662l.056-.24c.016-.055.056-.103.112-.111l.167-.04a.148.148 0 0 0 .112-.16l-.016-.207a.143.143 0 0 1 .143-.16c.2-.007.59.056 1.14.447.551.399.735.75.79.941a.155.155 0 0 1-.111.192l-.2.048c-.071.016-.12.087-.12.16l.017.175c.008.055-.024.111-.072.143l-.215.128c-1.915 3.844-3.159 6.07-3.637 6.907a2.389 2.389 0 0 0-.295.837l-.232 1.467a3.477 3.477 0 0 1-.606 1.468Zm14.547 5.248-6.651-9.292a3.603 3.603 0 0 0-1.212-1.06l-1.308-.694a2.55 2.55 0 0 1-.694-.543c-.16-.175-.383-.43-.67-.75-.048-.047-.128-.04-.16.025-1.005 1.938-1.69 3.142-1.993 3.684a1.758 1.758 0 0 0-.2.55 4.172 4.172 0 0 0 0 1.26l.008.072c.088.535.295 1.045.614 1.492l6.652 9.291c.335.47.901.726 1.475.654a5.418 5.418 0 0 0 2.52-1.005 5.53 5.53 0 0 0 1.755-2.057 1.593 1.593 0 0 0-.136-1.627ZM9.78 1.629l.2.048c.07.016.119.087.119.16l-.016.175c-.008.055.024.111.072.143l.215.128c.35.71.686 1.364.989 1.962.032.056.104.072.151.024.503-.535 1.101-1.173 1.81-1.906.057-.064.065-.16 0-.216-.358-.367-.733-.75-1.148-1.164l-.055-.24c-.008-.055-.056-.095-.112-.111l-.168-.04a.148.148 0 0 1-.111-.16l.016-.207a.143.143 0 0 0-.144-.16c-.2-.007-.59.048-1.148.447-.55.399-.734.75-.79.941-.016.072.04.16.12.176Z"/>
</svg>
