<svg xmlns="http://www.w3.org/2000/svg" width="19" height="18" fill="currentColor" viewBox="0 0 19 18">
  <path d="M17.515.607c-.152.06-4.093 1.674-8.759 3.59C3.531 6.34.236 7.716.174 7.777c-.13.132-.202.395-.164.61.065.368.088.38 2.533 1.265 1.87.676 2.249.8 2.323.757.049-.028.59-.38 1.203-.783l5.142-3.369c4.132-2.705 4.161-2.722 4.161-2.46 0 .054-1.366 1.432-3.85 3.882a853.984 853.984 0 0 0-3.951 3.91c-.1.11-.104.156-.243 2.282-.1 1.526-.129 2.207-.1 2.296.05.149.236.259.367.215.05-.018.646-.612 1.323-1.322.677-.71 1.247-1.29 1.267-1.29.02 0 1.023.802 2.23 1.783 1.206.98 2.26 1.82 2.342 1.867.32.182.79.038 1.013-.31.072-.112.45-1.88 1.662-7.774C18.293 5.142 19 1.648 19 1.574c0-.272-.1-.506-.317-.738-.334-.358-.668-.423-1.168-.229Z"/>
</svg>
