<svg xmlns="http://www.w3.org/2000/svg" width="24" height="14" fill="currentColor" viewBox="0 0 24 14">
  <path d="M.121.738A.949.949 0 0 1 .38.562C.488.517.901.503 2.186.502c1.538 0 1.681.006 1.863.083.25.106.44.35.626.803C5.68 3.84 6.703 5.654 7.782 6.895c.826.95 1.506 1.21 1.676.64.03-.101.049-.971.049-2.326 0-1.997-.007-2.19-.09-2.494-.116-.42-.254-.667-.609-1.095-.156-.188-.296-.406-.312-.484-.04-.197.08-.44.27-.548.15-.085.23-.088 2.468-.088 2.607 0 2.527-.01 2.687.32.085.172.09.322.09 2.792.001 1.747.019 2.673.053 2.8.101.374.39.476.797.283.255-.121.911-.711 1.308-1.175.913-1.07 1.86-2.571 2.72-4.312.175-.355.411-.577.702-.657.122-.035.707-.051 1.797-.051 1.582 0 1.62.002 1.825.098.308.145.36.323.234.793-.227.838-1.179 2.337-3.377 5.318-.337.456-.379.535-.379.71 0 .11.034.259.075.333.04.073.51.549 1.04 1.056 1.664 1.587 2.552 2.59 2.953 3.33.343.636.321 1.018-.072 1.246-.168.097-.199.099-1.855.111-1.876.015-1.91.01-2.328-.274-.126-.086-.644-.569-1.152-1.073-1.73-1.719-2.813-2.48-3.584-2.52-.401-.02-.552.036-.65.243-.068.14-.083.387-.104 1.634-.024 1.407-.03 1.475-.124 1.593-.26.323-.75.423-1.919.392-.963-.026-1.449-.105-2.345-.383-1.412-.436-2.704-1.194-3.937-2.308-.895-.808-1.692-1.764-2.703-3.24C.962 4.608-.43 1.294.12.739Z"/>
</svg>
